<svg xmlns="http://www.w3.org/2000/svg" viewBox="0 0 24 24"><defs><style>.cls-1{fill:#000e52;}.cls-2{fill:#ffe500;}</style></defs><title>gematik_Ampel_Gelb Kopie</title><g id="Gesetzliche_Grundlagen" data-name="Gesetzliche Grundlagen"><path class="cls-1" d="M12,21a3.86,3.86,0,0,1-4-4V14.5a.5.5,0,0,1,1,0V17a2.88,2.88,0,0,0,3,3,2.88,2.88,0,0,0,3-3V6.5a2.88,2.88,0,0,0-3-3,2.88,2.88,0,0,0-3,3v5a.5.5,0,0,1-1,0v-5a3.86,3.86,0,0,1,4-4,3.86,3.86,0,0,1,4,4V17A3.86,3.86,0,0,1,12,21Z"/><circle class="cls-2" cx="12" cy="12" r="1.5"/><path class="cls-2" d="M12,14a2,2,0,1,1,2-2A2,2,0,0,1,12,14Zm0-3a1,1,0,1,0,1,1A1,1,0,0,0,12,11Z"/><path class="cls-1" d="M12,19a2,2,0,1,1,2-2A2,2,0,0,1,12,19Zm0-3a1,1,0,1,0,1,1A1,1,0,0,0,12,16Z"/><path class="cls-1" d="M12,9a2,2,0,1,1,2-2A2,2,0,0,1,12,9Zm0-3a1,1,0,1,0,1,1A1,1,0,0,0,12,6Z"/></g></svg>