<svg xmlns="http://www.w3.org/2000/svg" viewBox="0 0 24 24"><defs><style>.cls-1{fill:#4affff;}</style></defs><title>Gematik_Piktogramme_Betriebskoordination_Hellblau Kopie</title><g id="Hersteller"><path class="cls-1" d="M3,12A8,8,0,0,1,6,5.77V6.5a.5.5,0,0,0,1,0v-2A.5.5,0,0,0,6.5,4h-2a.5.5,0,0,0,0,1h.87A9,9,0,0,0,3.22,16.52a.5.5,0,0,0,.43.25.47.47,0,0,0,.25-.07A.49.49,0,0,0,4.08,16,8,8,0,0,1,3,12Z"/><path class="cls-1" d="M18.69,15.66a.5.5,0,0,0-.68.19A8,8,0,0,1,7.14,19h.37a.5.5,0,1,0,0-1h-2a.49.49,0,0,0-.5.49l0,2a.5.5,0,0,0,.5.51h0a.5.5,0,0,0,.5-.5v-1A8.84,8.84,0,0,0,11,21a9,9,0,0,0,7.89-4.66A.5.5,0,0,0,18.69,15.66Z"/><path class="cls-1" d="M21.27,12.15a.5.5,0,0,0-.71,0l-.59.59c0-.25,0-.49,0-.74a9,9,0,0,0-9-9,8.85,8.85,0,0,0-2.12.25.5.5,0,1,0,.23,1A8.49,8.49,0,0,1,11,4a8,8,0,0,1,8,8c0,.23,0,.45,0,.68l-.53-.53a.5.5,0,0,0-.71,0,.5.5,0,0,0,0,.7l1.42,1.42a.51.51,0,0,0,.7,0l1.42-1.42A.5.5,0,0,0,21.27,12.15Z"/><path class="cls-1" d="M6.63,14.38a.56.56,0,0,0,0,.12l.06.06a5,5,0,0,0,8.54,0s.05,0,.06-.06a.56.56,0,0,0,0-.12A4.94,4.94,0,0,0,16,12,5,5,0,0,0,6,12,4.94,4.94,0,0,0,6.63,14.38ZM11,16a4,4,0,0,1-3.17-1.59l1.75-1a2,2,0,0,0,2.84,0l1.75,1A4,4,0,0,1,11,16Zm0-5a1,1,0,1,1-1,1A1,1,0,0,1,11,11Zm4,1a4,4,0,0,1-.31,1.55l-1.77-1A1.84,1.84,0,0,0,13,12a2,2,0,0,0-1.5-1.93v-2A4,4,0,0,1,15,12ZM10.5,8.05v2A2,2,0,0,0,9,12a1.84,1.84,0,0,0,.08.53l-1.77,1a4,4,0,0,1,3.19-5.5Z"/></g></svg>