<svg xmlns="http://www.w3.org/2000/svg" viewBox="0 0 24 24"><defs><style>.cls-1{fill:#000e52;}</style></defs><title>gematik_Piktogramm_Checkliste1_Blau Kopie</title><g id="Bericht"><path class="cls-1" d="M19.5,2H4.5a.5.5,0,0,0-.5.5v19a.5.5,0,0,0,1,0V3H19V21H7.5a.5.5,0,0,0,0,1h12a.5.5,0,0,0,.5-.5V2.5A.5.5,0,0,0,19.5,2Z"/><path class="cls-1" d="M8.5,13A1.5,1.5,0,1,0,7,11.5,1.5,1.5,0,0,0,8.5,13Zm0-2a.5.5,0,1,1-.5.5A.5.5,0,0,1,8.5,11Z"/><path class="cls-1" d="M8.5,18A1.5,1.5,0,1,0,7,16.5,1.5,1.5,0,0,0,8.5,18Zm0-2a.5.5,0,1,1-.5.5A.5.5,0,0,1,8.5,16Z"/><path class="cls-1" d="M12.5,7h4a.5.5,0,0,0,0-1h-4a.5.5,0,0,0,0,1Z"/><path class="cls-1" d="M12.5,12h4a.5.5,0,0,0,0-1h-4a.5.5,0,0,0,0,1Z"/><path class="cls-1" d="M12.5,17h4a.5.5,0,0,0,0-1h-4a.5.5,0,0,0,0,1Z"/><path class="cls-1" d="M8.5,8a.47.47,0,0,0,.35-.15l2-2a.49.49,0,0,0-.7-.7L8.5,6.79l-.65-.64a.49.49,0,0,0-.7.7l1,1A.47.47,0,0,0,8.5,8Z"/></g></svg>