<svg xmlns="http://www.w3.org/2000/svg" viewBox="0 0 24 24"><defs><style>.cls-1{fill:#00ff64;}</style></defs><title>gematik_Piktogramm_Checkliste2_Gruen Kopie</title><g id="Bericht"><path class="cls-1" d="M19.5,5H16v-.5a.5.5,0,0,0-.5-.5H14.45a2.5,2.5,0,0,0-4.9,0H8.5a.5.5,0,0,0-.5.5V5H4.5a.5.5,0,0,0-.5.5v16a.5.5,0,0,0,1,0V6H8v1.5a.5.5,0,0,0,.5.5h7a.5.5,0,0,0,.5-.5V6h3V21H7.5a.5.5,0,0,0-.5.5.5.5,0,0,0,.5.5h12a.5.5,0,0,0,.5-.5v-16A.5.5,0,0,0,19.5,5ZM15,7H9V5h1a.5.5,0,0,0,.5-.5,1.5,1.5,0,1,1,3,0A.5.5,0,0,0,14,5h1Z"/><path class="cls-1" d="M8.5,18A1.5,1.5,0,1,0,7,16.51,1.5,1.5,0,0,0,8.5,18Zm0-2a.5.5,0,0,1,.5.5.5.5,0,0,1-1,0A.5.5,0,0,1,8.5,16Z"/><path class="cls-1" d="M12.5,12h4a.5.5,0,0,0,.5-.5.5.5,0,0,0-.5-.5h-4a.5.5,0,0,0-.5.5A.5.5,0,0,0,12.5,12Z"/><path class="cls-1" d="M12.5,17h4a.5.5,0,0,0,.5-.5.5.5,0,0,0-.5-.5h-4a.5.5,0,0,0-.5.5A.5.5,0,0,0,12.5,17Z"/><path class="cls-1" d="M8.5,13a.46.46,0,0,0,.35-.14l2-2a.5.5,0,0,0,0-.71.5.5,0,0,0-.7,0L8.5,11.81l-.65-.65a.5.5,0,0,0-.7,0,.5.5,0,0,0,0,.71l1,1A.46.46,0,0,0,8.5,13Z"/></g></svg>