<?xml version="1.0" encoding="utf-8"?>
<!-- Generator: Adobe Illustrator 26.0.2, SVG Export Plug-In . SVG Version: 6.00 Build 0)  -->
<svg version="1.1" id="Layer_1" xmlns="http://www.w3.org/2000/svg" xmlns:xlink="http://www.w3.org/1999/xlink" x="0px" y="0px"
	 viewBox="0 0 24 24" style="enable-background:new 0 0 24 24;" xml:space="preserve">
<style type="text/css">
	.st0{fill:#4AFFFF;}
</style>
<g id="Bericht">
	<path class="st0" d="M19.5,22h-15C4.2,22,4,21.8,4,21.5v-19C4,2.2,4.2,2,4.5,2h6C10.8,2,11,2.2,11,2.5S10.8,3,10.5,3H5v18h14V7.9
		l-5-4.3V9h2.5C16.8,9,17,9.2,17,9.5S16.8,10,16.5,10h-3C13.2,10,13,9.8,13,9.5v-7C13,2.2,13.2,2,13.5,2c0.1,0,0.2,0,0.3,0.1l6,5.2
		C19.9,7.4,20,7.5,20,7.7v13.8C20,21.8,19.8,22,19.5,22z"/>
	<path class="st0" d="M15.5,14h-7C8.2,14,8,13.8,8,13.5S8.2,13,8.5,13h7c0.3,0,0.5,0.2,0.5,0.5S15.8,14,15.5,14z"/>
	<path class="st0" d="M15.5,16h-7C8.2,16,8,15.8,8,15.5S8.2,15,8.5,15h7c0.3,0,0.5,0.2,0.5,0.5S15.8,16,15.5,16z"/>
	<path class="st0" d="M15.5,18h-7C8.2,18,8,17.8,8,17.5S8.2,17,8.5,17h7c0.3,0,0.5,0.2,0.5,0.5S15.8,18,15.5,18z"/>
</g>
</svg>
