<svg xmlns="http://www.w3.org/2000/svg" viewBox="0 0 24 24"><defs><style>.cls-1{fill:#000e52;}</style></defs><title>Gematik_Piktogramme_Bericht Blau</title><g id="Bericht"><path class="cls-1" d="M19.5,22H4.5a.5.5,0,0,1-.5-.5V2.5A.5.5,0,0,1,4.5,2h6a.5.5,0,0,1,0,1H5V21H19V7.9l-5.83-5a.5.5,0,1,1,.66-.76l6,5.17a.49.49,0,0,1,.17.38V21.5A.5.5,0,0,1,19.5,22Z"/><path class="cls-1" d="M16.48,10h-3a.5.5,0,0,1-.5-.5v-7a.5.5,0,0,1,1,0V9h2.48a.5.5,0,0,1,0,1Z"/><path class="cls-1" d="M15.5,14h-7a.5.5,0,0,1,0-1h7a.5.5,0,0,1,0,1Z"/><path class="cls-1" d="M15.5,16h-7a.5.5,0,0,1,0-1h7a.5.5,0,0,1,0,1Z"/><path class="cls-1" d="M15.5,18h-7a.5.5,0,0,1,0-1h7a.5.5,0,0,1,0,1Z"/></g></svg>