<svg xmlns="http://www.w3.org/2000/svg" viewBox="0 0 24 24"><defs><style>.cls-1{fill:#00ff64;}</style></defs><title>Gematik_Piktogramme_Bericht Blau Kopie</title><g id="Bericht"><path class="cls-1" d="M19.83,7.29l-6-5.17A.51.51,0,0,0,13,2.5v7a.5.5,0,0,0,.5.5h3a.5.5,0,0,0,0-1H14V3.59L19,7.9V21H5V3h5.5a.5.5,0,0,0,0-1h-6a.5.5,0,0,0-.5.5v19a.5.5,0,0,0,.5.5h15a.5.5,0,0,0,.5-.5V7.67A.49.49,0,0,0,19.83,7.29Z"/><path class="cls-1" d="M15.5,13h-7a.5.5,0,0,0,0,1h7a.5.5,0,0,0,0-1Z"/><path class="cls-1" d="M15.5,15h-7a.5.5,0,0,0,0,1h7a.5.5,0,0,0,0-1Z"/><path class="cls-1" d="M15.5,17h-7a.5.5,0,0,0,0,1h7a.5.5,0,0,0,0-1Z"/></g></svg>