<?xml version="1.0" encoding="utf-8"?>
<!-- Generator: Adobe Illustrator 26.0.2, SVG Export Plug-In . SVG Version: 6.00 Build 0)  -->
<svg version="1.1" id="Layer_1" xmlns="http://www.w3.org/2000/svg" xmlns:xlink="http://www.w3.org/1999/xlink" x="0px" y="0px"
	 viewBox="0 0 24 24" style="enable-background:new 0 0 24 24;" xml:space="preserve">
<style type="text/css">
	.st0{fill:#4AFFFF;}
</style>
<g id="Gesetzliche_Grundlagen">
	<path class="st0" d="M8.8,11.4l1.7,0.6c0.3,0.1,0.6,0,0.6-0.3c0.1-0.3,0-0.6-0.3-0.6l0,0l-1.7-0.6c-1-0.3-2.1,0.2-2.4,1.1
		c-0.2,0.5-0.1,1,0.1,1.4c0.1,0.1,0.1,0.2,0.2,0.3c-0.4,0.2-0.7,0.6-0.8,1c-0.2,0.5-0.1,1,0.1,1.4c0.2,0.5,0.6,0.8,1.1,1l2,0.7
		c0.2,0.1,0.4,0.2,0.5,0.5c0.1,0.2,0.1,0.5,0,0.7c-0.2,0.5-0.7,0.7-1.1,0.5l-1.7-0.6c-0.3-0.1-0.5,0-0.6,0.3c-0.1,0.3,0,0.5,0.3,0.6
		c0,0,0,0,0,0l1.7,0.6c0.2,0.1,0.4,0.1,0.6,0.1c0.8,0,1.5-0.5,1.8-1.2c0.2-0.5,0.1-1-0.1-1.4c0-0.1-0.1-0.2-0.2-0.3
		c0.4-0.2,0.7-0.6,0.9-1c0.2-0.5,0.1-1-0.1-1.4c-0.2-0.5-0.6-0.8-1.1-1L8.1,13c-0.2-0.1-0.4-0.2-0.5-0.5c-0.1-0.2-0.1-0.5,0-0.7
		C7.8,11.5,8.3,11.3,8.8,11.4z M10.4,15.2c0.1,0.2,0.1,0.5,0,0.7c-0.2,0.5-0.7,0.7-1.1,0.5l-1.7-0.6c-0.2-0.1-0.4-0.2-0.5-0.5
		c-0.1-0.2-0.1-0.5,0-0.7c0.2-0.5,0.7-0.7,1.1-0.5l1.7,0.6C10.2,14.8,10.3,15,10.4,15.2z"/>
	<path class="st0" d="M19.8,7.3l-6-5.2c-0.2-0.2-0.5-0.1-0.7,0.1C13,2.3,13,2.4,13,2.5v7c0,0.3,0.2,0.5,0.5,0.5h3
		c0.3,0,0.5-0.2,0.5-0.5S16.8,9,16.5,9H14V3.6l5,4.3V21H5V3h5.5C10.8,3,11,2.8,11,2.5S10.8,2,10.5,2h-6C4.2,2,4,2.2,4,2.5v19
		C4,21.8,4.2,22,4.5,22h15c0.3,0,0.5-0.2,0.5-0.5V7.7C20,7.5,19.9,7.4,19.8,7.3z"/>
	<path class="st0" d="M13.5,14h4c0.3,0,0.5-0.2,0.5-0.5S17.8,13,17.5,13h-4c-0.3,0-0.5,0.2-0.5,0.5S13.2,14,13.5,14z"/>
	<path class="st0" d="M13.5,16h4c0.3,0,0.5-0.2,0.5-0.5S17.8,15,17.5,15h-4c-0.3,0-0.5,0.2-0.5,0.5S13.2,16,13.5,16z"/>
	<path class="st0" d="M13.5,18h4c0.3,0,0.5-0.2,0.5-0.5S17.8,17,17.5,17h-4c-0.3,0-0.5,0.2-0.5,0.5S13.2,18,13.5,18z"/>
</g>
</svg>
