<svg xmlns="http://www.w3.org/2000/svg" viewBox="0 0 24 24"><defs><style>.cls-1{fill:#000e52;}</style></defs><title>Gematik_Piktogramme_Gesetzliche Grundlagen 2 Blau</title><g id="Gesetzliche_Grundlagen" data-name="Gesetzliche Grundlagen"><path class="cls-1" d="M8.76,11.41l1.72.62a.5.5,0,0,0,.34-.95L9.1,10.47A1.9,1.9,0,0,0,6.68,11.6,1.82,1.82,0,0,0,6.74,13a1.38,1.38,0,0,0,.2.33,1.91,1.91,0,0,0-.83,1,1.87,1.87,0,0,0,.06,1.43,1.92,1.92,0,0,0,1.07,1l2,.73a.87.87,0,0,1,.51.45.94.94,0,0,1,0,.68.89.89,0,0,1-1.14.52L6.94,18.5a.5.5,0,1,0-.34.94l1.72.62a1.8,1.8,0,0,0,.64.11,1.89,1.89,0,0,0,1.78-1.24,1.87,1.87,0,0,0-.06-1.43,1.69,1.69,0,0,0-.17-.29,1.87,1.87,0,0,0,.88-1,1.84,1.84,0,0,0-.06-1.42,1.93,1.93,0,0,0-1.08-1l-2.1-.76a.86.86,0,0,1-.51-.46.91.91,0,0,1,0-.67A.93.93,0,0,1,8.76,11.41Zm1.66,3.81a.82.82,0,0,1,0,.67.89.89,0,0,1-1.14.53L7.58,15.8a.87.87,0,0,1-.5-.46.82.82,0,0,1,0-.67.89.89,0,0,1,1.14-.52l1.72.61A.9.9,0,0,1,10.42,15.22Z"/><path class="cls-1" d="M19.83,7.29l-6-5.17A.51.51,0,0,0,13,2.5v7a.5.5,0,0,0,.5.5h3a.5.5,0,0,0,0-1H14V3.59L19,7.9V21H5V3h5.5a.5.5,0,0,0,0-1h-6a.5.5,0,0,0-.5.5v19a.5.5,0,0,0,.5.5h15a.5.5,0,0,0,.5-.5V7.67A.49.49,0,0,0,19.83,7.29Z"/><path class="cls-1" d="M13.5,14h4a.5.5,0,0,0,0-1h-4a.5.5,0,0,0,0,1Z"/><path class="cls-1" d="M13.5,16h4a.5.5,0,0,0,0-1h-4a.5.5,0,0,0,0,1Z"/><path class="cls-1" d="M13.5,18h4a.5.5,0,0,0,0-1h-4a.5.5,0,0,0,0,1Z"/></g></svg>