<svg xmlns="http://www.w3.org/2000/svg" viewBox="0 0 24 24"><defs><style>.cls-1{fill:#000e52;}</style></defs><title>Gematik_Piktogramme_Massnahmen_Blau Kopie</title><g id="Bericht"><path class="cls-1" d="M13.5,6H19a.5.5,0,0,0,0-1H13.5a.5.5,0,0,0,0,1Z"/><path class="cls-1" d="M16,7H13.5a.5.5,0,0,0,0,1H16a.5.5,0,0,0,0-1Z"/><path class="cls-1" d="M19,11H13.5a.5.5,0,0,0,0,1H19a.5.5,0,0,0,0-1Z"/><path class="cls-1" d="M17,13H13.5a.5.5,0,0,0,0,1H17a.5.5,0,0,0,0-1Z"/><path class="cls-1" d="M13.5,18H19a.5.5,0,0,0,0-1H13.5a.5.5,0,0,0,0,1Z"/><path class="cls-1" d="M18,19H13.5a.5.5,0,0,0,0,1H18a.5.5,0,0,0,0-1Z"/><path class="cls-1" d="M21.5,3H2.5a.5.5,0,0,0-.5.5v18a.5.5,0,0,0,.5.5h13a.5.5,0,0,0,0-1H11V16H21v5H19.5a.5.5,0,0,0,0,1h2a.5.5,0,0,0,.5-.5V3.5A.5.5,0,0,0,21.5,3ZM21,9H11V4H21ZM3,4h7V9H3Zm0,6h7v5H3Zm7,11H3V16h7Zm1-6V10H21v5Z"/><path class="cls-1" d="M8.92,11.22a.51.51,0,0,0-.7-.14L5.56,12.86l-.71-.71a.49.49,0,0,0-.7.7l1,1a.24.24,0,0,0,.08.06l.06,0A.54.54,0,0,0,5.5,14a.48.48,0,0,0,.24-.07h0l3-2A.51.51,0,0,0,8.92,11.22Z"/><path class="cls-1" d="M9,6.15,7.73,4.9A.5.5,0,0,0,7,4.9a.5.5,0,0,0,0,.7l.4.4H4.5a.5.5,0,0,0,0,1H7.42L7,7.4a.51.51,0,0,0,0,.7.51.51,0,0,0,.36.15.5.5,0,0,0,.35-.15L9,6.85a.51.51,0,0,0,0-.7Z"/><path class="cls-1" d="M5.25,20.25a.47.47,0,0,0,.35-.15l1.65-1.64V19a.5.5,0,0,0,1,0V17.25a.5.5,0,0,0-.5-.5H6a.5.5,0,0,0,0,1h.54L4.9,19.4a.48.48,0,0,0,0,.7A.47.47,0,0,0,5.25,20.25Z"/></g></svg>