<svg id="Apotheker" xmlns="http://www.w3.org/2000/svg" viewBox="0 0 504 504"><defs><style>.cls-1{fill:none;stroke:#00ff64;stroke-linecap:round;stroke-linejoin:round;stroke-width:21px;}</style></defs><path class="cls-1" d="M336,389.24l42.33,32.25,42.11-42.11L381.12,327a147.82,147.82,0,0,0,14.41-34.86l64.9-9.27V223.28L395.53,214a147.82,147.82,0,0,0-14.41-34.86l39.32-52.42L378.33,84.62l-52.42,39.31a148.22,148.22,0,0,0-34.86-14.4l-9.27-64.9H222.22L213,109.53a147.82,147.82,0,0,0-34.86,14.41L125.67,84.62,83.56,126.73l39.32,52.42A147.82,147.82,0,0,0,108.47,214l-64.9,9.27v59.55l64.9,9.27A147.82,147.82,0,0,0,122.88,327L83.56,379.38l42.11,42.11L171,389.24"/><path class="cls-1" d="M251.9,158.78c-54.77-.82-100.58,39.23-101.8,94-.64,28.24,10.79,48.7,26.13,69.75C189.68,341,199.31,346.44,204.81,374"/><polyline class="cls-1" points="298.99 374.04 298.99 374.04 204.81 374.27"/><line class="cls-1" x1="298.99" y1="418.98" x2="208.78" y2="418.98"/><path class="cls-1" d="M280.11,204.83c17.33,10.21,29.8,23.83,33.46,43.41"/><path class="cls-1" d="M251.9,158.78c54.77-.82,100.58,39.23,101.81,94,.63,28.24-10.8,48.7-26.13,69.75C314.12,341,304.49,346.44,299,374"/><polyline class="cls-1" points="204.81 374.04 204.81 374.04 298.99 374.27"/><line class="cls-1" x1="298.99" y1="374.04" x2="298.99" y2="418.98"/><polyline class="cls-1" points="298.99 418.98 272.08 459.37 250.33 459.37"/><line class="cls-1" x1="253.47" y1="459.37" x2="231.72" y2="459.37"/></svg>