<svg xmlns="http://www.w3.org/2000/svg" viewBox="0 0 24 24"><defs><style>.cls-1{fill:#000e52;}</style></defs><title>Gematik_PiktogrammeZiele_Blau Kopie</title><g id="Hersteller"><path class="cls-1" d="M14.59,16.16a.49.49,0,0,0-.56.43.49.49,0,0,0,.43.56c2.5.33,3.54,1,3.54,1.35C18,19,15.72,20,12,20s-6-1-6-1.5S8,17.09,11.51,17a.5.5,0,0,0,.48-.46s0,0,0-.05V4.26l5.19,2.22L13.31,8a.5.5,0,1,0,.38.92l5-2A.49.49,0,0,0,19,6.51.51.51,0,0,0,18.7,6l-7-3a.51.51,0,0,0-.48,0A.5.5,0,0,0,11,3.5V16c-3.06.15-6,.94-6,2.48S8.52,21,12,21s7-.86,7-2.5S15.91,16.33,14.59,16.16Z"/></g></svg>