<?xml version="1.0" encoding="us-ascii" standalone="no"?><svg xmlns="http://www.w3.org/2000/svg" xmlns:xlink="http://www.w3.org/1999/xlink" contentStyleType="text/css" height="719px" preserveAspectRatio="none" style="width:752px;height:719px;background:#FFFFFF;" version="1.1" viewBox="0 0 752 719" width="752px" zoomAndPan="magnify"><defs/><g><!--cluster AMTS--><g id="cluster_AMTS"><rect fill="none" height="633" rx="35" ry="35" style="stroke:#181818;stroke-width:1.0;" width="538" x="208" y="7"/><text fill="#000000" font-family="sans-serif" font-size="14" font-weight="bold" lengthAdjust="spacing" textLength="44" x="455" y="26.9951">AMTS</text></g><!--cluster Medikation--><g id="cluster_Medikation"><rect fill="none" height="187" rx="35" ry="35" style="stroke:#181818;stroke-width:1.0;" width="407.5" x="298.5" y="66"/><text fill="#000000" font-family="sans-serif" font-size="14" font-weight="bold" lengthAdjust="spacing" textLength="85" x="459.75" y="85.9951">Medikation</text></g><!--cluster Reconciliation--><g id="cluster_Reconciliation"><rect fill="none" height="231" rx="35" ry="35" style="stroke:#181818;stroke-width:1.0;" width="299" x="248" y="293"/><text fill="#000000" font-family="sans-serif" font-size="14" font-weight="bold" lengthAdjust="spacing" textLength="109" x="343" y="312.9951">Reconciliation</text></g><g id="elem_Neu-Verordung"><ellipse cx="397.4948" cy="191.899" fill="#F1F1F1" rx="74.9948" ry="17.399" style="stroke:#181818;stroke-width:0.5;"/><text fill="#000000" font-family="sans-serif" font-size="14" lengthAdjust="spacing" textLength="106" x="341.4948" y="195.6465">Neu-Verordung</text></g><g id="elem_&#196;nderung"><ellipse cx="397.313" cy="123.7771" fill="#F1F1F1" rx="60.813" ry="14.7771" style="stroke:#181818;stroke-width:0.5;"/><text fill="#000000" font-family="sans-serif" font-size="14" lengthAdjust="spacing" textLength="68" x="360.313" y="127.5247">&#196;nderung</text></g><g id="elem_Abgabe"><ellipse cx="632.6151" cy="192.1874" fill="#F1F1F1" rx="49.6151" ry="14.6874" style="stroke:#181818;stroke-width:0.5;"/><text fill="#000000" font-family="sans-serif" font-size="14" lengthAdjust="spacing" textLength="53" x="603.1151" y="195.9349">Abgabe</text></g><g id="elem_Station&#228;re Aufnahme mit\n Medikationsumstellung"><ellipse cx="397.6797" cy="364.0359" fill="#F1F1F1" rx="125.6797" ry="27.5359" style="stroke:#181818;stroke-width:0.5;"/><text fill="#000000" font-family="sans-serif" font-size="14" lengthAdjust="spacing" textLength="169" x="310.1797" y="359.6351">Station&#228;re Aufnahme mit</text><text fill="#000000" font-family="sans-serif" font-size="14" lengthAdjust="spacing" textLength="160" x="316.6797" y="375.9319">Medikationsumstellung</text></g><g id="elem_Entlassung mit\n Medikationsumstellung"><ellipse cx="397.4321" cy="453.9864" fill="#F1F1F1" rx="122.9321" ry="26.9864" style="stroke:#181818;stroke-width:0.5;"/><text fill="#000000" font-family="sans-serif" font-size="14" lengthAdjust="spacing" textLength="102" x="346.4321" y="448.6847">Entlassung mit</text><text fill="#000000" font-family="sans-serif" font-size="14" lengthAdjust="spacing" textLength="160" x="319.4321" y="464.9815">Medikationsumstellung</text></g><!--entity cl1--><g id="elem_cl1"><path d="M313.8242,560.0033 C317.3067,554.4095 322.7575,554.9582 326.0023,560.2688 C328.2747,554.2429 334.4591,553.8761 338.278,558.4833 C341.1997,552.6523 345.6357,553.3054 349.4026,557.55 C354.4021,550.7787 359.5275,553.0569 362.8907,559.2522 C365.6404,553.5927 369.4833,552.8164 373.7181,557.7316 C377.33,551.8219 383.851,552.4565 387.2788,557.9506 C389.4375,552.1557 394.2964,550.8335 398.6154,555.6406 C402.7121,549.7508 407.0062,549.8464 410.5956,556.1395 C415.1548,550.9749 419.6153,552.5743 421.8688,558.4862 C426.0484,551.6257 430.7167,552.7237 434.5738,558.8029 C438.3576,552.2973 443.9343,553.1474 447.8246,558.6857 C451.2097,553.0215 456.4707,553.8701 458.6481,559.812 C462.1651,552.8028 468.7919,554.0345 471.972,560.1539 C475.392,554.2198 479.9796,554.927 483.4461,560.1059 C490.6268,562.6633 492.213,568.5873 486.8886,574.1993 C493.3764,580.4698 493.1524,587.5538 484.2154,591.4315 C479.9413,598.6032 475.2195,597.0273 470.7146,591.6805 C468.0701,597.7362 463.9854,598.4756 459.6608,593.34 C455.8438,600.0935 449.4454,599.6164 445.8108,593.1489 C442.6113,599.2768 438.7698,598.2247 434.7441,594.0351 C433.3745,600.7395 428.1654,601.7578 423.7695,596.91 C420.6721,602.7375 415.0122,602.776 411.6762,597.1622 C407.7185,603.8328 403.5411,604.576 398.7581,597.965 C394.5656,603.0299 390.1442,603.3287 386.5858,597.271 C382.0533,603.4991 378.0768,602.367 373.8323,596.9554 C369.6199,602.5497 364.8154,601.6342 362.5265,595.1543 C357.7736,601.7993 352.9814,600.9 349.2363,594.1541 C344.116,599.6254 340.6945,598.7428 337.7421,592.0975 C333.7097,596.8822 329.2765,597.1809 326.5346,590.802 C322.227,596.4028 316.3494,596.7695 313.2465,589.553 C307.1387,585.9214 306.5745,580.8571 311.7236,575.964 C304.2078,569.6828 306.4847,564.3293 313.8242,560.0033 " fill="#F1F1F1" style="stroke:#181818;stroke-width:0.5;"/><text fill="#000000" font-family="sans-serif" font-size="14" lengthAdjust="spacing" textLength="155" x="320" y="578.9951">Neue Informationslage</text></g><!--entity Heilberufler--><g id="elem_Heilberufler"><ellipse cx="95" cy="459.5" fill="#F1F1F1" rx="8" ry="8" style="stroke:#181818;stroke-width:0.5;"/><path d="M95,467.5 L95,494.5 M82,475.5 L108,475.5 M95,494.5 L82,509.5 M95,494.5 L108,509.5 " fill="none" style="stroke:#181818;stroke-width:0.5;"/><text fill="#000000" font-family="sans-serif" font-size="14" lengthAdjust="spacing" textLength="78" x="56" y="523.9951">Heilberufler</text></g><!--entity Versicherter--><g id="elem_Versicherter"><ellipse cx="95" cy="570.5" fill="#F1F1F1" rx="8" ry="8" style="stroke:#181818;stroke-width:0.5;"/><path d="M95,578.5 L95,605.5 M82,586.5 L108,586.5 M95,605.5 L82,620.5 M95,605.5 L108,620.5 " fill="none" style="stroke:#181818;stroke-width:0.5;"/><text fill="#000000" font-family="sans-serif" font-size="14" lengthAdjust="spacing" textLength="84" x="53" y="634.9951">Versicherter</text></g><g id="elem_Medikationsprozess"><ellipse cx="94.7915" cy="693.1583" fill="#F1F1F1" rx="88.7915" ry="20.1583" style="stroke:#181818;stroke-width:0.5;"/><text fill="#000000" font-family="sans-serif" font-size="14" lengthAdjust="spacing" textLength="139" x="25.2915" y="696.005">Medikationsprozess</text></g><!--link Medikationsprozess to AMTS--><g id="link_Medikationsprozess_AMTS"><path d="M161.57,679.69 C205.09,670.855 262.6825,659.165 309.9512,649.57 C321.7684,647.1713 332.9404,644.9034 343.0859,642.8439 C345.6223,642.329 348.0945,641.8272 350.4967,641.3395 C351.6977,641.0957 352.8812,640.8554 354.0465,640.6189 C354.6291,640.5006 355.2072,640.3833 355.7806,640.2668 C356.0673,640.2086 350.4728,641.3444 350.7571,641.2867 " fill="none" id="Medikationsprozess-to-AMTS" style="stroke:#181818;stroke-width:1.0;stroke-dasharray:7.0,7.0;"/><polygon fill="#181818" points="356.6372,640.093,347.0213,637.9635,351.7372,641.0877,348.6129,645.8035,356.6372,640.093" style="stroke:#181818;stroke-width:1.0;"/></g><!--link Heilberufler to Medikation--><g id="link_Heilberufler_Medikation"><path d="M108.72,450.96 C123.27,412.91 150.55,355.12 192,320 C228.355,289.2 278.4625,270.55 319.9788,259.5513 C325.1683,258.1764 330.2236,256.9211 335.101,255.7766 C337.5397,255.2043 339.9339,254.6597 342.2782,254.1418 C343.4504,253.8828 344.6101,253.6304 345.7566,253.3846 C346.3298,253.2617 341.0293,254.3804 341.5959,254.2607 " fill="none" id="Heilberufler-to-Medikation" style="stroke:#181818;stroke-width:1.0;"/><polygon fill="#181818" points="347.4664,253.0207,337.834,250.9671,342.5743,254.054,339.4874,258.7943,347.4664,253.0207" style="stroke:#181818;stroke-width:1.0;"/></g><!--link Heilberufler to Reconciliation--><g id="link_Heilberufler_Reconciliation"><path d="M134.06,492.42 C153.96,494.2075 179.9594,496.5431 207.8509,499.0489 C214.8238,499.6754 221.915,500.3124 229.0587,500.9542 C232.6305,501.2751 236.2155,501.5972 239.8053,501.9198 C241.6003,502.081 243.3965,502.2424 245.1928,502.4038 C246.091,502.4845 241.0133,502.0283 241.9115,502.109 " fill="none" id="Heilberufler-to-Reconciliation" style="stroke:#181818;stroke-width:1.0;"/><polygon fill="#181818" points="247.8874,502.6459,239.2815,497.8566,242.9075,502.1985,238.5656,505.8245,247.8874,502.6459" style="stroke:#181818;stroke-width:1.0;"/></g><!--link Heilberufler to cl1--><g id="link_Heilberufler_cl1"><path d="M134.01,508.34 C151.35,516.55 172.36,525.67 192,532 C228.22,543.68 263.2347,551.7241 298.8947,558.4741 " fill="none" id="Heilberufler-to-cl1" style="stroke:#181818;stroke-width:1.0;"/><polygon fill="#181818" points="304.79,559.59,296.691,553.9859,299.8772,558.6601,295.2031,561.8463,304.79,559.59" style="stroke:#181818;stroke-width:1.0;"/></g><!--reverse link Versicherter to AMTS--><g id="link_Versicherter_AMTS"><path d="M143.0029,606.7755 C159.9929,609.1355 173.95,610.94 192,613 C194.7897,613.3184 197.6013,613.6353 200.4307,613.9503 C201.8455,614.1078 203.2647,614.2648 204.6879,614.4214 C205.3995,614.4997 206.112,614.5779 206.8256,614.6559 C207.1823,614.6949 207.5393,614.7339 207.8965,614.7729 " fill="none" id="Versicherter-backto-AMTS" style="stroke:#181818;stroke-width:1.0;"/><polygon fill="#181818" points="137.06,605.95,145.4241,611.1502,142.0125,606.6379,146.5247,603.2263,137.06,605.95" style="stroke:#181818;stroke-width:1.0;"/></g><!--link Versicherter to cl1--><g id="link_Versicherter_cl1"><path d="M137.15,596.44 C180.15,592.72 243.0323,587.277 298.9923,582.437 " fill="none" id="Versicherter-to-cl1" style="stroke:#181818;stroke-width:1.0;"/><polygon fill="#181818" points="304.97,581.92,295.6588,578.7104,299.9886,582.3508,296.3481,586.6806,304.97,581.92" style="stroke:#181818;stroke-width:1.0;"/></g><!--SRC=[XL6nReCm5Dpz5KzP20EHkaOLKePAxP0EfUhKnPW7iJ0sUZP3Mx7rK_ed-R6Qa0PS6jMJkNllxdmeB1qu0oIhWuD24WedZMQsbhhbn1jekQXvXPbxKmZM6V8VZ0j_WUqzIfKZTQL2sfx15oGhnG798R7pFAnt- -SiXWy6_bp0FHQoveDVF3B3MJzYbtWHGqMdgtZ2Zv-wy5u1jiihdkC8zA7u4mgZXLHoOP2v4tJy8eHTLsf-Q10QwLurJ8birrY7IeL-TzefRgq7_ryOymXbkW9M_b483xeqr8pJoeTS0RT-uERSIyzw5Wr5GPAaOO_HlAibFMDjI-OThOrXiqb_UcVp7tLQdnP-SIc4nIrNVM0MpUtXDadcWWjk216Y5vrfxOz7N-bYQ6oG3HI_0G00]--></g></svg>