<?xml version="1.0" encoding="us-ascii" standalone="no"?><svg xmlns="http://www.w3.org/2000/svg" xmlns:xlink="http://www.w3.org/1999/xlink" contentStyleType="text/css" height="516px" preserveAspectRatio="none" style="width:929px;height:516px;background:#FFFFFF;" version="1.1" viewBox="0 0 929 516" width="929px" zoomAndPan="magnify"><defs/><g><!--cluster CSt_AppointmentLead--><g id="cluster_CSt_AppointmentLead"><path d="M8.5,6 L525.5,6 A3.75,3.75 0 0 1 528,8.5 L535,28.2969 L919.5,28.2969 A2.5,2.5 0 0 1 922,30.7969 L922,506.5 A2.5,2.5 0 0 1 919.5,509 L8.5,509 A2.5,2.5 0 0 1 6,506.5 L6,8.5 A2.5,2.5 0 0 1 8.5,6 " fill="none" style="stroke:#000000;stroke-width:1.5;"/><line style="stroke:#000000;stroke-width:1.5;" x1="6" x2="535" y1="28.2969" y2="28.2969"/><text fill="#000000" font-family="sans-serif" font-size="14" font-weight="bold" lengthAdjust="spacing" textLength="516" x="10" y="20.9951">Alle Systeme mit dem Charakter eines Terminf&#252;hrenden Systems</text></g><!--entity CStLead_Schedule--><g id="elem_CStLead_Schedule"><rect fill="#F1F1F1" height="127.4844" rx="2.5" ry="2.5" style="stroke:#181818;stroke-width:0.5;" width="197" x="26.5" y="365.5"/><rect fill="#F1F1F1" height="10" style="stroke:#181818;stroke-width:0.5;" width="15" x="203.5" y="370.5"/><rect fill="#F1F1F1" height="2" style="stroke:#181818;stroke-width:0.5;" width="4" x="201.5" y="372.5"/><rect fill="#F1F1F1" height="2" style="stroke:#181818;stroke-width:0.5;" width="4" x="201.5" y="376.5"/><text fill="#000000" font-family="sans-serif" font-size="14" font-weight="bold" lengthAdjust="spacing" textLength="105" x="41.5" y="398.4951">ISiK Kalender</text><line style="stroke:#181818;stroke-width:1.0;" x1="27.5" x2="222.5" y1="401.7969" y2="401.7969"/><line style="stroke:#181818;stroke-width:1.0;" x1="27.5" x2="222.5" y1="403.7969" y2="403.7969"/><text fill="#000000" font-family="sans-serif" font-size="14" lengthAdjust="spacing" textLength="129" x="41.5" y="418.792">Suche anhand von</text><rect fill="#000000" height="3.5" style="stroke:#000000;stroke-width:0.0;" width="3.5" x="50.5" y="428.3906"/><text fill="#000000" font-family="sans-serif" font-size="14" lengthAdjust="spacing" textLength="62" x="57.5" y="435.0889">: ** actor</text><line style="stroke:#181818;stroke-width:1.0;" x1="27.5" x2="222.5" y1="442.3906" y2="442.3906"/><line style="stroke:#181818;stroke-width:1.0;" x1="27.5" x2="222.5" y1="444.3906" y2="444.3906"/><text fill="#000000" font-family="sans-serif" font-size="14" lengthAdjust="spacing" textLength="157" x="41.5" y="459.3857">Finde alle zugeh&#246;rigen</text><ellipse cx="47" cy="471.4844" fill="#000000" rx="2.5" ry="2.5" style="stroke:#000000;stroke-width:0.0;"/><text fill="#000000" font-family="sans-serif" font-size="14" lengthAdjust="spacing" textLength="26" x="53.5" y="475.6826">Slot</text><text fill="#000000" font-family="sans-serif" font-size="14" font-weight="bold" lengthAdjust="spacing" textLength="22" x="88.5" y="475.6826">via</text><text fill="#000000" font-family="sans-serif" font-size="14" lengthAdjust="spacing" textLength="64" x="119.5" y="475.6826">schedule</text></g><!--entity CStLead_Slot--><g id="elem_CStLead_Slot"><rect fill="#F1F1F1" height="127.4844" rx="2.5" ry="2.5" style="stroke:#181818;stroke-width:0.5;" width="206" x="22" y="203.5"/><rect fill="#F1F1F1" height="10" style="stroke:#181818;stroke-width:0.5;" width="15" x="208" y="208.5"/><rect fill="#F1F1F1" height="2" style="stroke:#181818;stroke-width:0.5;" width="4" x="206" y="210.5"/><rect fill="#F1F1F1" height="2" style="stroke:#181818;stroke-width:0.5;" width="4" x="206" y="214.5"/><text fill="#000000" font-family="sans-serif" font-size="14" font-weight="bold" lengthAdjust="spacing" textLength="131" x="37" y="236.4951">ISiK Terminblock</text><line style="stroke:#181818;stroke-width:1.0;" x1="23" x2="227" y1="239.7969" y2="239.7969"/><line style="stroke:#181818;stroke-width:1.0;" x1="23" x2="227" y1="241.7969" y2="241.7969"/><text fill="#000000" font-family="sans-serif" font-size="14" lengthAdjust="spacing" textLength="129" x="37" y="256.792">Suche anhand von</text><rect fill="#000000" height="3.5" style="stroke:#000000;stroke-width:0.0;" width="3.5" x="46" y="266.3906"/><text fill="#000000" font-family="sans-serif" font-size="14" lengthAdjust="spacing" textLength="91" x="53" y="273.0889">: ** schedule</text><line style="stroke:#181818;stroke-width:1.0;" x1="23" x2="227" y1="280.3906" y2="280.3906"/><line style="stroke:#181818;stroke-width:1.0;" x1="23" x2="227" y1="282.3906" y2="282.3906"/><text fill="#000000" font-family="sans-serif" font-size="14" lengthAdjust="spacing" textLength="157" x="37" y="297.3857">Finde alle zugeh&#246;rigen</text><ellipse cx="42.5" cy="309.4844" fill="#000000" rx="2.5" ry="2.5" style="stroke:#000000;stroke-width:0.0;"/><text fill="#000000" font-family="sans-serif" font-size="14" lengthAdjust="spacing" textLength="89" x="49" y="313.6826">Appointment</text><text fill="#000000" font-family="sans-serif" font-size="14" font-weight="bold" lengthAdjust="spacing" textLength="22" x="147" y="313.6826">via</text><text fill="#000000" font-family="sans-serif" font-size="14" lengthAdjust="spacing" textLength="25" x="178" y="313.6826">slot</text></g><!--entity CStLead_Appointment--><g id="elem_CStLead_Appointment"><rect fill="#F1F1F1" height="127.4844" rx="2.5" ry="2.5" style="stroke:#181818;stroke-width:0.5;" width="206" x="22" y="41.5"/><rect fill="#F1F1F1" height="10" style="stroke:#181818;stroke-width:0.5;" width="15" x="208" y="46.5"/><rect fill="#F1F1F1" height="2" style="stroke:#181818;stroke-width:0.5;" width="4" x="206" y="48.5"/><rect fill="#F1F1F1" height="2" style="stroke:#181818;stroke-width:0.5;" width="4" x="206" y="52.5"/><text fill="#000000" font-family="sans-serif" font-size="14" font-weight="bold" lengthAdjust="spacing" textLength="89" x="37" y="74.4951">ISiK Termin</text><line style="stroke:#181818;stroke-width:1.0;" x1="23" x2="227" y1="77.7969" y2="77.7969"/><line style="stroke:#181818;stroke-width:1.0;" x1="23" x2="227" y1="79.7969" y2="79.7969"/><text fill="#000000" font-family="sans-serif" font-size="14" lengthAdjust="spacing" textLength="129" x="37" y="94.792">Suche anhand von</text><rect fill="#000000" height="3.5" style="stroke:#000000;stroke-width:0.0;" width="3.5" x="46" y="104.3906"/><text fill="#000000" font-family="sans-serif" font-size="14" lengthAdjust="spacing" textLength="91" x="53" y="111.0889">: ** schedule</text><line style="stroke:#181818;stroke-width:1.0;" x1="23" x2="227" y1="118.3906" y2="118.3906"/><line style="stroke:#181818;stroke-width:1.0;" x1="23" x2="227" y1="120.3906" y2="120.3906"/><text fill="#000000" font-family="sans-serif" font-size="14" lengthAdjust="spacing" textLength="157" x="37" y="135.3857">Finde alle zugeh&#246;rigen</text><ellipse cx="42.5" cy="147.4844" fill="#000000" rx="2.5" ry="2.5" style="stroke:#000000;stroke-width:0.0;"/><text fill="#000000" font-family="sans-serif" font-size="14" lengthAdjust="spacing" textLength="89" x="49" y="151.6826">Appointment</text><text fill="#000000" font-family="sans-serif" font-size="14" font-weight="bold" lengthAdjust="spacing" textLength="22" x="147" y="151.6826">via</text><text fill="#000000" font-family="sans-serif" font-size="14" lengthAdjust="spacing" textLength="25" x="178" y="151.6826">slot</text></g><!--entity ISiK Medikament--><g id="elem_ISiK Medikament"><rect fill="#F1F1F1" height="46.2969" rx="2.5" ry="2.5" style="stroke:#181818;stroke-width:0.5;" width="153" x="357.5" y="406"/><rect fill="#F1F1F1" height="10" style="stroke:#181818;stroke-width:0.5;" width="15" x="490.5" y="411"/><rect fill="#F1F1F1" height="2" style="stroke:#181818;stroke-width:0.5;" width="4" x="488.5" y="413"/><rect fill="#F1F1F1" height="2" style="stroke:#181818;stroke-width:0.5;" width="4" x="488.5" y="417"/><text fill="#000000" font-family="sans-serif" font-size="14" lengthAdjust="spacing" textLength="113" x="372.5" y="438.9951">ISiK Medikament</text></g><!--entity ISiK Patient--><g id="elem_ISiK Patient"><rect fill="#F1F1F1" height="46.2969" rx="2.5" ry="2.5" style="stroke:#181818;stroke-width:0.5;" width="116" x="376" y="325"/><rect fill="#F1F1F1" height="10" style="stroke:#181818;stroke-width:0.5;" width="15" x="472" y="330"/><rect fill="#F1F1F1" height="2" style="stroke:#181818;stroke-width:0.5;" width="4" x="470" y="332"/><rect fill="#F1F1F1" height="2" style="stroke:#181818;stroke-width:0.5;" width="4" x="470" y="336"/><text fill="#000000" font-family="sans-serif" font-size="14" lengthAdjust="spacing" textLength="76" x="391" y="357.9951">ISiK Patient</text></g><!--entity ISiK Kontakt Gesundheitseinrichtung--><g id="elem_ISiK Kontakt Gesundheitseinrichtung"><rect fill="#F1F1F1" height="46.2969" rx="2.5" ry="2.5" style="stroke:#181818;stroke-width:0.5;" width="292" x="288" y="244"/><rect fill="#F1F1F1" height="10" style="stroke:#181818;stroke-width:0.5;" width="15" x="560" y="249"/><rect fill="#F1F1F1" height="2" style="stroke:#181818;stroke-width:0.5;" width="4" x="558" y="251"/><rect fill="#F1F1F1" height="2" style="stroke:#181818;stroke-width:0.5;" width="4" x="558" y="255"/><text fill="#000000" font-family="sans-serif" font-size="14" lengthAdjust="spacing" textLength="252" x="303" y="276.9951">ISiK Kontakt Gesundheitseinrichtung</text></g><!--entity ISiK Person im Gesundheitsberuf--><g id="elem_ISiK Person im Gesundheitsberuf"><rect fill="#F1F1F1" height="46.2969" rx="2.5" ry="2.5" style="stroke:#181818;stroke-width:0.5;" width="266" x="640" y="406"/><rect fill="#F1F1F1" height="10" style="stroke:#181818;stroke-width:0.5;" width="15" x="886" y="411"/><rect fill="#F1F1F1" height="2" style="stroke:#181818;stroke-width:0.5;" width="4" x="884" y="413"/><rect fill="#F1F1F1" height="2" style="stroke:#181818;stroke-width:0.5;" width="4" x="884" y="417"/><text fill="#000000" font-family="sans-serif" font-size="14" lengthAdjust="spacing" textLength="226" x="655" y="438.9951">ISiK Person im Gesundheitsberuf</text></g><!--SRC=[pPE_QiCm48TtFSNX9U17A7G8WPQI50hkLafGhBCbB4j6EWVIqjVgr2qlrfDh4lUFXtQg1zdczFjqdsnPh0Z8Gp2r9b0cO4d6Ex68ZN6T3BA5JfQDhB6WWqKehU-LE1UjSKY73i47qbu8KNchCC2geEsowxnnrAAZ3Ke5CaAsj0mf3f6mHMWDBuajh3Ip6k8OCYx2FORMkEhufWCwXMuCn0oU1GnNwTlEEmQdXH9yMvGQLS_mXt4AG9xV56ODQsaJ9UJvgNB9r-cbw3aAqcdf5EpP_Po7YpJ8ado0QVZqV6MO3399FVKrwkChRoHE451OJmcoDpBTujZcCEDn6CMCK0f-a_dOcftrPVDddqyz_DveybcdOjpkA3KZDCtDUFrlfSNPAHkQlaLb6fdEIzmO_aEpB-RJMOdzS_sE2RF5jNV4HmEkCVPEQJGK-Om4KshgNJq3n12z0zDEKpiCVPK9yIBU0G00]--></g></svg>