<?xml version="1.0" encoding="us-ascii" standalone="no"?><svg xmlns="http://www.w3.org/2000/svg" xmlns:xlink="http://www.w3.org/1999/xlink" contentStyleType="text/css" height="767px" preserveAspectRatio="none" style="width:1398px;height:767px;background:#FFFFFF;" version="1.1" viewBox="0 0 1398 767" width="1398px" zoomAndPan="magnify"><defs/><g><!--cluster CSt_MedInfo--><g id="cluster_CSt_MedInfo"><path d="M8.5,330 L265.5,330 A3.75,3.75 0 0 1 268,332.5 L275,368.5938 L664.5,368.5938 A2.5,2.5 0 0 1 667,371.0938 L667,749.5 A2.5,2.5 0 0 1 664.5,752 L8.5,752 A2.5,2.5 0 0 1 6,749.5 L6,332.5 A2.5,2.5 0 0 1 8.5,330 " fill="none" style="stroke:#000000;stroke-width:1.5;"/><line style="stroke:#000000;stroke-width:1.5;" x1="6" x2="275" y1="368.5938" y2="368.5938"/><text fill="#000000" font-family="sans-serif" font-size="14" font-weight="bold" lengthAdjust="spacing" textLength="251" x="10" y="344.9951">Systeme mit dem Charakter der</text><text fill="#000000" font-family="sans-serif" font-size="14" font-weight="bold" lengthAdjust="spacing" textLength="184" x="48.5" y="361.292">Medikationsinformation</text></g><!--cluster CSt_MedAll--><g id="cluster_CSt_MedAll"><path d="M30,14 L339,14 A3.75,3.75 0 0 1 341.5,16.5 L348.5,36.2969 L683.5,36.2969 A2.5,2.5 0 0 1 686,38.7969 L686,303.5 A2.5,2.5 0 0 1 683.5,306 L30,306 A2.5,2.5 0 0 1 27.5,303.5 L27.5,16.5 A2.5,2.5 0 0 1 30,14 " fill="none" style="stroke:#000000;stroke-width:1.5;"/><line style="stroke:#000000;stroke-width:1.5;" x1="27.5" x2="348.5" y1="36.2969" y2="36.2969"/><text fill="#000000" font-family="sans-serif" font-size="14" font-weight="bold" lengthAdjust="spacing" textLength="308" x="31.5" y="28.9951">Alle Systeme mit MedikationsCharakter</text></g><!--cluster CSt_MedVerab--><g id="cluster_CSt_MedVerab"><path d="M716.5,395 L973.5,395 A3.75,3.75 0 0 1 976,397.5 L983,433.5938 L1386.5,433.5938 A2.5,2.5 0 0 1 1389,436.0938 L1389,757.5 A2.5,2.5 0 0 1 1386.5,760 L716.5,760 A2.5,2.5 0 0 1 714,757.5 L714,397.5 A2.5,2.5 0 0 1 716.5,395 " fill="none" style="stroke:#000000;stroke-width:1.5;"/><line style="stroke:#000000;stroke-width:1.5;" x1="714" x2="983" y1="433.5938" y2="433.5938"/><text fill="#000000" font-family="sans-serif" font-size="14" font-weight="bold" lengthAdjust="spacing" textLength="251" x="718" y="409.9951">Systeme mit dem Charakter der</text><text fill="#000000" font-family="sans-serif" font-size="14" font-weight="bold" lengthAdjust="spacing" textLength="209" x="744" y="426.292">Medikationsverabreichung</text></g><!--cluster CSt_MedVerord--><g id="cluster_CSt_MedVerord"><path d="M727.5,6 L984.5,6 A3.75,3.75 0 0 1 987,8.5 L994,44.5938 L1388.5,44.5938 A2.5,2.5 0 0 1 1391,47.0938 L1391,368.5 A2.5,2.5 0 0 1 1388.5,371 L727.5,371 A2.5,2.5 0 0 1 725,368.5 L725,8.5 A2.5,2.5 0 0 1 727.5,6 " fill="none" style="stroke:#000000;stroke-width:1.5;"/><line style="stroke:#000000;stroke-width:1.5;" x1="725" x2="994" y1="44.5938" y2="44.5938"/><text fill="#000000" font-family="sans-serif" font-size="14" font-weight="bold" lengthAdjust="spacing" textLength="251" x="729" y="20.9951">Systeme mit dem Charakter der</text><text fill="#000000" font-family="sans-serif" font-size="14" font-weight="bold" lengthAdjust="spacing" textLength="187" x="766" y="37.292">Medikationsverordnung</text></g><!--entity _MedInfo--><g id="elem__MedInfo"><rect fill="#F1F1F1" height="119.4844" rx="2.5" ry="2.5" style="stroke:#181818;stroke-width:0.5;" width="258" x="22" y="616.5"/><rect fill="#F1F1F1" height="10" style="stroke:#181818;stroke-width:0.5;" width="15" x="260" y="621.5"/><rect fill="#F1F1F1" height="2" style="stroke:#181818;stroke-width:0.5;" width="4" x="258" y="623.5"/><rect fill="#F1F1F1" height="2" style="stroke:#181818;stroke-width:0.5;" width="4" x="258" y="627.5"/><text fill="#000000" font-family="sans-serif" font-size="14" font-weight="bold" lengthAdjust="spacing" textLength="218" x="37" y="649.4951">ISiK MedikationsInformation</text><line style="stroke:#181818;stroke-width:1.0;" x1="23" x2="279" y1="652.7969" y2="652.7969"/><line style="stroke:#181818;stroke-width:1.0;" x1="23" x2="279" y1="654.7969" y2="654.7969"/><text fill="#000000" font-family="sans-serif" font-size="14" lengthAdjust="spacing" textLength="129" x="37" y="669.792">Suche anhand von</text><ellipse cx="42.5" cy="681.8906" fill="#000000" rx="2.5" ry="2.5" style="stroke:#000000;stroke-width:0.0;"/><text fill="#000000" font-family="sans-serif" font-size="14" font-weight="bold" lengthAdjust="spacing" textLength="6" x="54" y="686.0889">:</text><text fill="#000000" font-family="sans-serif" font-size="14" lengthAdjust="spacing" textLength="76" x="64" y="686.0889">medication</text><ellipse cx="42.5" cy="698.1875" fill="#000000" rx="2.5" ry="2.5" style="stroke:#000000;stroke-width:0.0;"/><text fill="#000000" font-family="sans-serif" font-size="14" font-weight="bold" lengthAdjust="spacing" textLength="6" x="54" y="702.3857">:</text><text fill="#000000" font-family="sans-serif" font-size="14" lengthAdjust="spacing" textLength="48" x="64" y="702.3857">patient</text><ellipse cx="42.5" cy="714.4844" fill="#000000" rx="2.5" ry="2.5" style="stroke:#000000;stroke-width:0.0;"/><text fill="#000000" font-family="sans-serif" font-size="14" font-weight="bold" lengthAdjust="spacing" textLength="6" x="54" y="718.6826">:</text><text fill="#000000" font-family="sans-serif" font-size="14" lengthAdjust="spacing" textLength="52" x="64" y="718.6826">context</text></g><!--entity CStAll_MedikationsListe--><g id="elem_CStAll_MedikationsListe"><rect fill="#F1F1F1" height="119.4844" rx="2.5" ry="2.5" style="stroke:#181818;stroke-width:0.5;" width="206" x="48" y="462.5"/><rect fill="#F1F1F1" height="10" style="stroke:#181818;stroke-width:0.5;" width="15" x="234" y="467.5"/><rect fill="#F1F1F1" height="2" style="stroke:#181818;stroke-width:0.5;" width="4" x="232" y="469.5"/><rect fill="#F1F1F1" height="2" style="stroke:#181818;stroke-width:0.5;" width="4" x="232" y="473.5"/><text fill="#000000" font-family="sans-serif" font-size="14" font-weight="bold" lengthAdjust="spacing" textLength="166" x="63" y="495.4951">ISiK MedikationsListe</text><line style="stroke:#181818;stroke-width:1.0;" x1="49" x2="253" y1="498.7969" y2="498.7969"/><line style="stroke:#181818;stroke-width:1.0;" x1="49" x2="253" y1="500.7969" y2="500.7969"/><text fill="#000000" font-family="sans-serif" font-size="14" lengthAdjust="spacing" textLength="129" x="63" y="515.792">Suche anhand von</text><ellipse cx="68.5" cy="527.8906" fill="#000000" rx="2.5" ry="2.5" style="stroke:#000000;stroke-width:0.0;"/><text fill="#000000" font-family="sans-serif" font-size="14" font-weight="bold" lengthAdjust="spacing" textLength="6" x="80" y="532.0889">:</text><text fill="#000000" font-family="sans-serif" font-size="14" lengthAdjust="spacing" textLength="76" x="95" y="532.0889">medication</text><ellipse cx="68.5" cy="544.1875" fill="#000000" rx="2.5" ry="2.5" style="stroke:#000000;stroke-width:0.0;"/><text fill="#000000" font-family="sans-serif" font-size="14" font-weight="bold" lengthAdjust="spacing" textLength="6" x="80" y="548.3857">:</text><text fill="#000000" font-family="sans-serif" font-size="14" lengthAdjust="spacing" textLength="48" x="95" y="548.3857">patient</text><ellipse cx="68.5" cy="560.4844" fill="#000000" rx="2.5" ry="2.5" style="stroke:#000000;stroke-width:0.0;"/><text fill="#000000" font-family="sans-serif" font-size="14" font-weight="bold" lengthAdjust="spacing" textLength="6" x="80" y="564.6826">:</text><text fill="#000000" font-family="sans-serif" font-size="14" lengthAdjust="spacing" textLength="52" x="95" y="564.6826">context</text></g><!--entity ISiK Medikament--><g id="elem_ISiK Medikament"><rect fill="#F1F1F1" height="46.2969" rx="2.5" ry="2.5" style="stroke:#181818;stroke-width:0.5;" width="153" x="74.5" y="381"/><rect fill="#F1F1F1" height="10" style="stroke:#181818;stroke-width:0.5;" width="15" x="207.5" y="386"/><rect fill="#F1F1F1" height="2" style="stroke:#181818;stroke-width:0.5;" width="4" x="205.5" y="388"/><rect fill="#F1F1F1" height="2" style="stroke:#181818;stroke-width:0.5;" width="4" x="205.5" y="392"/><text fill="#000000" font-family="sans-serif" font-size="14" lengthAdjust="spacing" textLength="113" x="89.5" y="413.9951">ISiK Medikament</text></g><!--entity ISiK Patient--><g id="elem_ISiK Patient"><rect fill="#F1F1F1" height="46.2969" rx="2.5" ry="2.5" style="stroke:#181818;stroke-width:0.5;" width="116" x="447" y="653"/><rect fill="#F1F1F1" height="10" style="stroke:#181818;stroke-width:0.5;" width="15" x="543" y="658"/><rect fill="#F1F1F1" height="2" style="stroke:#181818;stroke-width:0.5;" width="4" x="541" y="660"/><rect fill="#F1F1F1" height="2" style="stroke:#181818;stroke-width:0.5;" width="4" x="541" y="664"/><text fill="#000000" font-family="sans-serif" font-size="14" lengthAdjust="spacing" textLength="76" x="462" y="685.9951">ISiK Patient</text></g><!--entity ISiK Kontakt Gesundheitseinrichtung--><g id="elem_ISiK Kontakt Gesundheitseinrichtung"><rect fill="#F1F1F1" height="46.2969" rx="2.5" ry="2.5" style="stroke:#181818;stroke-width:0.5;" width="292" x="359" y="572"/><rect fill="#F1F1F1" height="10" style="stroke:#181818;stroke-width:0.5;" width="15" x="631" y="577"/><rect fill="#F1F1F1" height="2" style="stroke:#181818;stroke-width:0.5;" width="4" x="629" y="579"/><rect fill="#F1F1F1" height="2" style="stroke:#181818;stroke-width:0.5;" width="4" x="629" y="583"/><text fill="#000000" font-family="sans-serif" font-size="14" lengthAdjust="spacing" textLength="252" x="374" y="604.9951">ISiK Kontakt Gesundheitseinrichtung</text></g><!--entity ISiK Person im Gesundheitsberuf--><g id="elem_ISiK Person im Gesundheitsberuf"><rect fill="#F1F1F1" height="46.2969" rx="2.5" ry="2.5" style="stroke:#181818;stroke-width:0.5;" width="266" x="372" y="491"/><rect fill="#F1F1F1" height="10" style="stroke:#181818;stroke-width:0.5;" width="15" x="618" y="496"/><rect fill="#F1F1F1" height="2" style="stroke:#181818;stroke-width:0.5;" width="4" x="616" y="498"/><rect fill="#F1F1F1" height="2" style="stroke:#181818;stroke-width:0.5;" width="4" x="616" y="502"/><text fill="#000000" font-family="sans-serif" font-size="14" lengthAdjust="spacing" textLength="226" x="387" y="523.9951">ISiK Person im Gesundheitsberuf</text></g><!--entity CStAll_Medikament--><g id="elem_CStAll_Medikament"><rect fill="#F1F1F1" height="86.8906" rx="2.5" ry="2.5" style="stroke:#181818;stroke-width:0.5;" width="169" x="66.5" y="202.5"/><rect fill="#F1F1F1" height="10" style="stroke:#181818;stroke-width:0.5;" width="15" x="215.5" y="207.5"/><rect fill="#F1F1F1" height="2" style="stroke:#181818;stroke-width:0.5;" width="4" x="213.5" y="209.5"/><rect fill="#F1F1F1" height="2" style="stroke:#181818;stroke-width:0.5;" width="4" x="213.5" y="213.5"/><text fill="#000000" font-family="sans-serif" font-size="14" font-weight="bold" lengthAdjust="spacing" textLength="129" x="81.5" y="235.4951">ISiK Medikament</text><line style="stroke:#181818;stroke-width:1.0;" x1="67.5" x2="234.5" y1="238.7969" y2="238.7969"/><line style="stroke:#181818;stroke-width:1.0;" x1="67.5" x2="234.5" y1="240.7969" y2="240.7969"/><text fill="#000000" font-family="sans-serif" font-size="14" lengthAdjust="spacing" textLength="129" x="81.5" y="255.792">Suche anhand von</text><ellipse cx="87" cy="267.8906" fill="#000000" rx="2.5" ry="2.5" style="stroke:#000000;stroke-width:0.0;"/><text fill="#000000" font-family="sans-serif" font-size="14" font-weight="bold" lengthAdjust="spacing" textLength="6" x="98.5" y="272.0889">:</text><text fill="#000000" font-family="sans-serif" font-size="14" lengthAdjust="spacing" textLength="70" x="113.5" y="272.0889">ingredient</text></g><!--entity CStAll_Patient--><g id="elem_CStAll_Patient"><rect fill="#F1F1F1" height="103.1875" rx="2.5" ry="2.5" style="stroke:#181818;stroke-width:0.5;" width="215" x="43.5" y="64.5"/><rect fill="#F1F1F1" height="10" style="stroke:#181818;stroke-width:0.5;" width="15" x="238.5" y="69.5"/><rect fill="#F1F1F1" height="2" style="stroke:#181818;stroke-width:0.5;" width="4" x="236.5" y="71.5"/><rect fill="#F1F1F1" height="2" style="stroke:#181818;stroke-width:0.5;" width="4" x="236.5" y="75.5"/><text fill="#000000" font-family="sans-serif" font-size="14" font-weight="bold" lengthAdjust="spacing" textLength="89" x="58.5" y="97.4951">ISiK Patient</text><line style="stroke:#181818;stroke-width:1.0;" x1="44.5" x2="257.5" y1="100.7969" y2="100.7969"/><line style="stroke:#181818;stroke-width:1.0;" x1="44.5" x2="257.5" y1="102.7969" y2="102.7969"/><text fill="#000000" font-family="sans-serif" font-size="14" lengthAdjust="spacing" textLength="157" x="58.5" y="117.792">Finde alle zugeh&#246;rigen</text><ellipse cx="64" cy="129.8906" fill="#000000" rx="2.5" ry="2.5" style="stroke:#000000;stroke-width:0.0;"/><text fill="#000000" font-family="sans-serif" font-size="14" lengthAdjust="spacing" textLength="72" x="70.5" y="134.0889">Encounter</text><text fill="#000000" font-family="sans-serif" font-size="14" font-weight="bold" lengthAdjust="spacing" textLength="22" x="151.5" y="134.0889">via</text><text fill="#000000" font-family="sans-serif" font-size="14" lengthAdjust="spacing" textLength="48" x="182.5" y="134.0889">patient</text><ellipse cx="64" cy="146.1875" fill="#000000" rx="2.5" ry="2.5" style="stroke:#000000;stroke-width:0.0;"/><text fill="#000000" font-family="sans-serif" font-size="14" lengthAdjust="spacing" textLength="72" x="70.5" y="150.3857">Encounter</text><text fill="#000000" font-family="sans-serif" font-size="14" font-weight="bold" lengthAdjust="spacing" textLength="22" x="151.5" y="150.3857">via</text><text fill="#000000" font-family="sans-serif" font-size="14" lengthAdjust="spacing" textLength="51" x="182.5" y="150.3857">subject</text></g><!--entity CStAll_KontaktGesundheitseinrichtung--><g id="elem_CStAll_KontaktGesundheitseinrichtung"><rect fill="#F1F1F1" height="152.0781" rx="2.5" ry="2.5" style="stroke:#181818;stroke-width:0.5;" width="330" x="340" y="138"/><rect fill="#F1F1F1" height="10" style="stroke:#181818;stroke-width:0.5;" width="15" x="650" y="143"/><rect fill="#F1F1F1" height="2" style="stroke:#181818;stroke-width:0.5;" width="4" x="648" y="145"/><rect fill="#F1F1F1" height="2" style="stroke:#181818;stroke-width:0.5;" width="4" x="648" y="149"/><text fill="#000000" font-family="sans-serif" font-size="14" font-weight="bold" lengthAdjust="spacing" textLength="290" x="355" y="170.9951">ISiK Kontakt Gesundheitseinrichtung</text><line style="stroke:#181818;stroke-width:1.0;" x1="341" x2="669" y1="174.2969" y2="174.2969"/><line style="stroke:#181818;stroke-width:1.0;" x1="341" x2="669" y1="176.2969" y2="176.2969"/><text fill="#000000" font-family="sans-serif" font-size="14" lengthAdjust="spacing" textLength="129" x="355" y="191.292">Suche anhand von</text><ellipse cx="360.5" cy="203.3906" fill="#000000" rx="2.5" ry="2.5" style="stroke:#000000;stroke-width:0.0;"/><text fill="#000000" font-family="sans-serif" font-size="14" font-weight="bold" lengthAdjust="spacing" textLength="6" x="372" y="207.5889">:</text><text fill="#000000" font-family="sans-serif" font-size="14" lengthAdjust="spacing" textLength="48" x="387" y="207.5889">patient</text><ellipse cx="360.5" cy="219.6875" fill="#000000" rx="2.5" ry="2.5" style="stroke:#000000;stroke-width:0.0;"/><text fill="#000000" font-family="sans-serif" font-size="14" font-weight="bold" lengthAdjust="spacing" textLength="6" x="372" y="223.8857">:</text><text fill="#000000" font-family="sans-serif" font-size="14" lengthAdjust="spacing" textLength="51" x="387" y="223.8857">subject</text><ellipse cx="360.5" cy="235.9844" fill="#000000" rx="2.5" ry="2.5" style="stroke:#000000;stroke-width:0.0;"/><text fill="#000000" font-family="sans-serif" font-size="14" font-weight="bold" lengthAdjust="spacing" textLength="6" x="372" y="240.1826">:</text><text fill="#000000" font-family="sans-serif" font-size="14" lengthAdjust="spacing" textLength="45" x="387" y="240.1826">part-of</text><text fill="#000000" font-family="sans-serif" font-size="14" lengthAdjust="spacing" textLength="157" x="355" y="256.4795">Finde alle zugeh&#246;rigen</text><ellipse cx="360.5" cy="268.5781" fill="#000000" rx="2.5" ry="2.5" style="stroke:#000000;stroke-width:0.0;"/><text fill="#000000" font-family="sans-serif" font-size="14" lengthAdjust="spacing" textLength="72" x="367" y="272.7764">Encounter</text><text fill="#000000" font-family="sans-serif" font-size="14" font-weight="bold" lengthAdjust="spacing" textLength="22" x="448" y="272.7764">via</text><text fill="#000000" font-family="sans-serif" font-size="14" lengthAdjust="spacing" textLength="45" x="479" y="272.7764">part-of</text></g><!--entity CStAll_PersonImGesundheitsberuf--><g id="elem_CStAll_PersonImGesundheitsberuf"><rect fill="#F1F1F1" height="54.2969" rx="2.5" ry="2.5" style="stroke:#181818;stroke-width:0.5;" width="301" x="354.5" y="49"/><rect fill="#F1F1F1" height="10" style="stroke:#181818;stroke-width:0.5;" width="15" x="635.5" y="54"/><rect fill="#F1F1F1" height="2" style="stroke:#181818;stroke-width:0.5;" width="4" x="633.5" y="56"/><rect fill="#F1F1F1" height="2" style="stroke:#181818;stroke-width:0.5;" width="4" x="633.5" y="60"/><text fill="#000000" font-family="sans-serif" font-size="14" font-weight="bold" lengthAdjust="spacing" textLength="261" x="369.5" y="81.9951">ISiK Person im Gesundheitsberuf</text><line style="stroke:#181818;stroke-width:1.0;" x1="355.5" x2="654.5" y1="85.2969" y2="85.2969"/><line style="stroke:#181818;stroke-width:1.0;" x1="355.5" x2="654.5" y1="87.2969" y2="87.2969"/></g><!--entity _MedVerab--><g id="elem__MedVerab"><rect fill="#F1F1F1" height="135.7813" rx="2.5" ry="2.5" style="stroke:#181818;stroke-width:0.5;" width="285" x="730" y="608"/><rect fill="#F1F1F1" height="10" style="stroke:#181818;stroke-width:0.5;" width="15" x="995" y="613"/><rect fill="#F1F1F1" height="2" style="stroke:#181818;stroke-width:0.5;" width="4" x="993" y="615"/><rect fill="#F1F1F1" height="2" style="stroke:#181818;stroke-width:0.5;" width="4" x="993" y="619"/><text fill="#000000" font-family="sans-serif" font-size="14" font-weight="bold" lengthAdjust="spacing" textLength="245" x="745" y="640.9951">ISiK MedikationsVerabreichung</text><line style="stroke:#181818;stroke-width:1.0;" x1="731" x2="1014" y1="644.2969" y2="644.2969"/><line style="stroke:#181818;stroke-width:1.0;" x1="731" x2="1014" y1="646.2969" y2="646.2969"/><text fill="#000000" font-family="sans-serif" font-size="14" lengthAdjust="spacing" textLength="129" x="745" y="661.292">Suche anhand von</text><ellipse cx="750.5" cy="673.3906" fill="#000000" rx="2.5" ry="2.5" style="stroke:#000000;stroke-width:0.0;"/><text fill="#000000" font-family="sans-serif" font-size="14" font-weight="bold" lengthAdjust="spacing" textLength="6" x="762" y="677.5889">:</text><text fill="#000000" font-family="sans-serif" font-size="14" lengthAdjust="spacing" textLength="76" x="772" y="677.5889">medication</text><ellipse cx="750.5" cy="689.6875" fill="#000000" rx="2.5" ry="2.5" style="stroke:#000000;stroke-width:0.0;"/><text fill="#000000" font-family="sans-serif" font-size="14" font-weight="bold" lengthAdjust="spacing" textLength="6" x="762" y="693.8857">:</text><text fill="#000000" font-family="sans-serif" font-size="14" lengthAdjust="spacing" textLength="48" x="772" y="693.8857">patient</text><ellipse cx="750.5" cy="705.9844" fill="#000000" rx="2.5" ry="2.5" style="stroke:#000000;stroke-width:0.0;"/><text fill="#000000" font-family="sans-serif" font-size="14" font-weight="bold" lengthAdjust="spacing" textLength="6" x="762" y="710.1826">:</text><text fill="#000000" font-family="sans-serif" font-size="14" lengthAdjust="spacing" textLength="52" x="772" y="710.1826">context</text><ellipse cx="750.5" cy="722.2813" fill="#000000" rx="2.5" ry="2.5" style="stroke:#000000;stroke-width:0.0;"/><text fill="#000000" font-family="sans-serif" font-size="14" font-weight="bold" lengthAdjust="spacing" textLength="6" x="762" y="726.4795">:</text><text fill="#000000" font-family="sans-serif" font-size="14" lengthAdjust="spacing" textLength="68" x="772" y="726.4795">performer</text></g><!--entity ISiK Medikament --><g id="elem_ISiK Medikament "><rect fill="#F1F1F1" height="46.2969" rx="2.5" ry="2.5" style="stroke:#181818;stroke-width:0.5;" width="157" x="794" y="527"/><rect fill="#F1F1F1" height="10" style="stroke:#181818;stroke-width:0.5;" width="15" x="931" y="532"/><rect fill="#F1F1F1" height="2" style="stroke:#181818;stroke-width:0.5;" width="4" x="929" y="534"/><rect fill="#F1F1F1" height="2" style="stroke:#181818;stroke-width:0.5;" width="4" x="929" y="538"/><text fill="#000000" font-family="sans-serif" font-size="14" lengthAdjust="spacing" textLength="113" x="809" y="559.9951">ISiK Medikament</text></g><!--entity ISiK Patient --><g id="elem_ISiK Patient "><rect fill="#F1F1F1" height="46.2969" rx="2.5" ry="2.5" style="stroke:#181818;stroke-width:0.5;" width="120" x="812.5" y="446"/><rect fill="#F1F1F1" height="10" style="stroke:#181818;stroke-width:0.5;" width="15" x="912.5" y="451"/><rect fill="#F1F1F1" height="2" style="stroke:#181818;stroke-width:0.5;" width="4" x="910.5" y="453"/><rect fill="#F1F1F1" height="2" style="stroke:#181818;stroke-width:0.5;" width="4" x="910.5" y="457"/><text fill="#000000" font-family="sans-serif" font-size="14" lengthAdjust="spacing" textLength="76" x="827.5" y="478.9951">ISiK Patient</text></g><!--entity ISiK Kontakt Gesundheitseinrichtung --><g id="elem_ISiK Kontakt Gesundheitseinrichtung "><rect fill="#F1F1F1" height="46.2969" rx="2.5" ry="2.5" style="stroke:#181818;stroke-width:0.5;" width="296" x="1077" y="653"/><rect fill="#F1F1F1" height="10" style="stroke:#181818;stroke-width:0.5;" width="15" x="1353" y="658"/><rect fill="#F1F1F1" height="2" style="stroke:#181818;stroke-width:0.5;" width="4" x="1351" y="660"/><rect fill="#F1F1F1" height="2" style="stroke:#181818;stroke-width:0.5;" width="4" x="1351" y="664"/><text fill="#000000" font-family="sans-serif" font-size="14" lengthAdjust="spacing" textLength="252" x="1092" y="685.9951">ISiK Kontakt Gesundheitseinrichtung</text></g><!--entity ISiK Person im Gesundheitsberuf --><g id="elem_ISiK Person im Gesundheitsberuf "><rect fill="#F1F1F1" height="46.2969" rx="2.5" ry="2.5" style="stroke:#181818;stroke-width:0.5;" width="270" x="1090" y="572"/><rect fill="#F1F1F1" height="10" style="stroke:#181818;stroke-width:0.5;" width="15" x="1340" y="577"/><rect fill="#F1F1F1" height="2" style="stroke:#181818;stroke-width:0.5;" width="4" x="1338" y="579"/><rect fill="#F1F1F1" height="2" style="stroke:#181818;stroke-width:0.5;" width="4" x="1338" y="583"/><text fill="#000000" font-family="sans-serif" font-size="14" lengthAdjust="spacing" textLength="226" x="1105" y="604.9951">ISiK Person im Gesundheitsberuf</text></g><!--entity _MedVerord--><g id="elem__MedVerord"><rect fill="#F1F1F1" height="135.7813" rx="2.5" ry="2.5" style="stroke:#181818;stroke-width:0.5;" width="263" x="741" y="219"/><rect fill="#F1F1F1" height="10" style="stroke:#181818;stroke-width:0.5;" width="15" x="984" y="224"/><rect fill="#F1F1F1" height="2" style="stroke:#181818;stroke-width:0.5;" width="4" x="982" y="226"/><rect fill="#F1F1F1" height="2" style="stroke:#181818;stroke-width:0.5;" width="4" x="982" y="230"/><text fill="#000000" font-family="sans-serif" font-size="14" font-weight="bold" lengthAdjust="spacing" textLength="223" x="756" y="251.9951">ISiK MedikationsVerordnung</text><line style="stroke:#181818;stroke-width:1.0;" x1="742" x2="1003" y1="255.2969" y2="255.2969"/><line style="stroke:#181818;stroke-width:1.0;" x1="742" x2="1003" y1="257.2969" y2="257.2969"/><text fill="#000000" font-family="sans-serif" font-size="14" lengthAdjust="spacing" textLength="129" x="756" y="272.292">Suche anhand von</text><ellipse cx="761.5" cy="284.3906" fill="#000000" rx="2.5" ry="2.5" style="stroke:#000000;stroke-width:0.0;"/><text fill="#000000" font-family="sans-serif" font-size="14" font-weight="bold" lengthAdjust="spacing" textLength="6" x="773" y="288.5889">:</text><text fill="#000000" font-family="sans-serif" font-size="14" lengthAdjust="spacing" textLength="76" x="783" y="288.5889">medication</text><ellipse cx="761.5" cy="300.6875" fill="#000000" rx="2.5" ry="2.5" style="stroke:#000000;stroke-width:0.0;"/><text fill="#000000" font-family="sans-serif" font-size="14" font-weight="bold" lengthAdjust="spacing" textLength="6" x="773" y="304.8857">:</text><text fill="#000000" font-family="sans-serif" font-size="14" lengthAdjust="spacing" textLength="48" x="783" y="304.8857">patient</text><ellipse cx="761.5" cy="316.9844" fill="#000000" rx="2.5" ry="2.5" style="stroke:#000000;stroke-width:0.0;"/><text fill="#000000" font-family="sans-serif" font-size="14" font-weight="bold" lengthAdjust="spacing" textLength="6" x="773" y="321.1826">:</text><text fill="#000000" font-family="sans-serif" font-size="14" lengthAdjust="spacing" textLength="72" x="783" y="321.1826">encounter</text><ellipse cx="761.5" cy="333.2813" fill="#000000" rx="2.5" ry="2.5" style="stroke:#000000;stroke-width:0.0;"/><text fill="#000000" font-family="sans-serif" font-size="14" font-weight="bold" lengthAdjust="spacing" textLength="6" x="773" y="337.4795">:</text><text fill="#000000" font-family="sans-serif" font-size="14" lengthAdjust="spacing" textLength="68" x="783" y="337.4795">requester</text></g><!--entity ISiK Medikament  --><g id="elem_ISiK Medikament  "><rect fill="#F1F1F1" height="46.2969" rx="2.5" ry="2.5" style="stroke:#181818;stroke-width:0.5;" width="161" x="792" y="138"/><rect fill="#F1F1F1" height="10" style="stroke:#181818;stroke-width:0.5;" width="15" x="933" y="143"/><rect fill="#F1F1F1" height="2" style="stroke:#181818;stroke-width:0.5;" width="4" x="931" y="145"/><rect fill="#F1F1F1" height="2" style="stroke:#181818;stroke-width:0.5;" width="4" x="931" y="149"/><text fill="#000000" font-family="sans-serif" font-size="14" lengthAdjust="spacing" textLength="113" x="807" y="170.9951">ISiK Medikament</text></g><!--entity ISiK Patient  --><g id="elem_ISiK Patient  "><rect fill="#F1F1F1" height="46.2969" rx="2.5" ry="2.5" style="stroke:#181818;stroke-width:0.5;" width="124" x="810.5" y="57"/><rect fill="#F1F1F1" height="10" style="stroke:#181818;stroke-width:0.5;" width="15" x="914.5" y="62"/><rect fill="#F1F1F1" height="2" style="stroke:#181818;stroke-width:0.5;" width="4" x="912.5" y="64"/><rect fill="#F1F1F1" height="2" style="stroke:#181818;stroke-width:0.5;" width="4" x="912.5" y="68"/><text fill="#000000" font-family="sans-serif" font-size="14" lengthAdjust="spacing" textLength="76" x="825.5" y="89.9951">ISiK Patient</text></g><!--entity ISiK Kontakt Gesundheitseinrichtung  --><g id="elem_ISiK Kontakt Gesundheitseinrichtung  "><rect fill="#F1F1F1" height="46.2969" rx="2.5" ry="2.5" style="stroke:#181818;stroke-width:0.5;" width="300" x="1075" y="264"/><rect fill="#F1F1F1" height="10" style="stroke:#181818;stroke-width:0.5;" width="15" x="1355" y="269"/><rect fill="#F1F1F1" height="2" style="stroke:#181818;stroke-width:0.5;" width="4" x="1353" y="271"/><rect fill="#F1F1F1" height="2" style="stroke:#181818;stroke-width:0.5;" width="4" x="1353" y="275"/><text fill="#000000" font-family="sans-serif" font-size="14" lengthAdjust="spacing" textLength="252" x="1090" y="296.9951">ISiK Kontakt Gesundheitseinrichtung</text></g><!--entity ISiK Person im Gesundheitsberuf  --><g id="elem_ISiK Person im Gesundheitsberuf  "><rect fill="#F1F1F1" height="46.2969" rx="2.5" ry="2.5" style="stroke:#181818;stroke-width:0.5;" width="274" x="1088" y="183"/><rect fill="#F1F1F1" height="10" style="stroke:#181818;stroke-width:0.5;" width="15" x="1342" y="188"/><rect fill="#F1F1F1" height="2" style="stroke:#181818;stroke-width:0.5;" width="4" x="1340" y="190"/><rect fill="#F1F1F1" height="2" style="stroke:#181818;stroke-width:0.5;" width="4" x="1340" y="194"/><text fill="#000000" font-family="sans-serif" font-size="14" lengthAdjust="spacing" textLength="226" x="1103" y="215.9951">ISiK Person im Gesundheitsberuf</text></g><!--SRC=[jLNRYjim47ttLmn-2GJo0uKMojAMi2qK3FlIXaMnnxOQIt9bEJGj_Qt-G7-i8yThQst9RH8go4rpyPmvCoSLvWQC0isBqa36DQQ6AncjcWENDTDCGCtI0oimCQSA8QrKcqMZiU8IpQb6KDgKAegYN5KPQhXBpEC7pBOoLy0QY9DJOr0W24vFGG5t9OKV37bQxyyIo9aVc7rsmob8Y-vx33yYe9CgKIk9qi2GzLDdi6UztYRytism7JEiruFVIph3ZwHDImGcIoOpE1BY8HlbWnVq4fGlxNBCRJNTKpLpGwgamMzdmwvxdzHFZNbTLOzEiUyvjMOHJkTn9H1OGW91AE35iXfnnDuYumbQrqlGXT_-yLo2ttXFLT2am3jiMfcLo4s3N6gUbgQLHI0XwaP9uCADsgDkypYAVaw7bFZePfG-4Tn1TT0DypgVo6UCMf0XBgtj1XQvB3JbUU9gvo-Zx-MyXjuGAk0jbnaLO5lmlIsm_FsB907TEjx8LBNIhYmLS-JCFpm-hwRTVo5TMIgxPzbFyXpCyb3SqEJmDhWWfZ7QR5H-Sol7B25kkx7UYkbGUyWEBe2lDplQYPMhs9lDgv1GJNRd0JNRNwpmHnkbaUYoA-pL-7FYCx2v8Zwu2Nf80nmlpI5PzqgwLyv7JzJsxmMrbwkfvC6Yvi4reWUNgXu5p5IFMgXqTWrr52QNUBDf5uZhm_yZQ_YqNi-lDNvjiJ7_ojjVYBkEkSkfwxZx0m00]--></g></svg>