<?xml version="1.0" encoding="us-ascii" standalone="no"?><svg xmlns="http://www.w3.org/2000/svg" xmlns:xlink="http://www.w3.org/1999/xlink" contentStyleType="text/css" height="1058px" preserveAspectRatio="none" style="width:689px;height:1058px;background:#FFFFFF;" version="1.1" viewBox="0 0 689 1058" width="689px" zoomAndPan="magnify"><defs/><g><!--cluster adverseUC--><g id="cluster_adverseUC"><rect fill="none" height="343" rx="35" ry="35" style="stroke:#181818;stroke-width:1.0;" width="470.5" x="7" y="709.5"/><text fill="#000000" font-family="sans-serif" font-size="14" font-weight="bold" lengthAdjust="spacing" textLength="145" x="169.75" y="729.4951">Adverse Use Case</text></g><!--cluster Verwechslung--><g id="cluster_Verwechslung"><rect fill="none" height="154" rx="35" ry="35" style="stroke:#181818;stroke-width:1.0;" width="422" x="31.5" y="752.5"/><text fill="#000000" font-family="sans-serif" font-size="14" font-weight="bold" lengthAdjust="spacing" textLength="114" x="185.5" y="772.4951">Verwechslung</text></g><!--cluster gnrlUC--><g id="cluster_gnrlUC"><rect fill="none" height="661" rx="35" ry="35" style="stroke:#181818;stroke-width:1.0;" width="454" x="229" y="16.5"/><text fill="#000000" font-family="sans-serif" font-size="14" font-weight="bold" lengthAdjust="spacing" textLength="77" x="417.5" y="36.4951">Allgemein</text></g><!--cluster AMTS--><g id="cluster_AMTS"><rect fill="none" height="149" rx="35" ry="35" style="stroke:#181818;stroke-width:1.0;" width="174" x="272.5" y="75.5"/><text fill="#000000" font-family="sans-serif" font-size="14" font-weight="bold" lengthAdjust="spacing" textLength="44" x="337.5" y="95.4951">AMTS</text></g><!--cluster Medikations-Liste--><g id="cluster_Medikations-Liste"><rect fill="none" height="154" rx="35" ry="35" style="stroke:#181818;stroke-width:1.0;" width="390" x="261" y="248.5"/><text fill="#000000" font-family="sans-serif" font-size="14" font-weight="bold" lengthAdjust="spacing" textLength="138" x="387" y="268.4951">Medikations-Liste</text></g><g id="elem_Mehrfachverordnung"><ellipse cx="113.9996" cy="1015.5999" fill="#F1F1F1" rx="90.9996" ry="20.5999" style="stroke:#181818;stroke-width:0.5;"/><text fill="#000000" font-family="sans-serif" font-size="14" lengthAdjust="spacing" textLength="144" x="41.9996" y="1018.4466">Mehrfachverordnung</text></g><g id="elem_Informationsl&#252;cke"><ellipse cx="113.9455" cy="941.6891" fill="#F1F1F1" rx="81.4455" ry="18.6891" style="stroke:#181818;stroke-width:0.5;"/><text fill="#000000" font-family="sans-serif" font-size="14" lengthAdjust="spacing" textLength="122" x="51.8109" y="944.909">Informationsl&#252;cke</text></g><g id="elem_Kontraindikation"><ellipse cx="359.4563" cy="1015.2913" fill="#F1F1F1" rx="76.9563" ry="17.7913" style="stroke:#181818;stroke-width:0.5;"/><text fill="#000000" font-family="sans-serif" font-size="14" lengthAdjust="spacing" textLength="111" x="301.0675" y="1019.0101">Kontraindikation</text></g><g id="elem_Wechselwirkung"><ellipse cx="359.2532" cy="944.4506" fill="#F1F1F1" rx="77.7532" ry="17.9506" style="stroke:#181818;stroke-width:0.5;"/><text fill="#000000" font-family="sans-serif" font-size="14" lengthAdjust="spacing" textLength="113" x="300.1994" y="948.0809">Wechselwirkung</text></g><g id="elem_Patient"><ellipse cx="113.8836" cy="873.6478" fill="#F1F1F1" rx="45.8836" ry="14.6478" style="stroke:#181818;stroke-width:0.5;"/><text fill="#000000" font-family="sans-serif" font-size="14" lengthAdjust="spacing" textLength="48" x="86.8836" y="877.3954">Patient</text></g><g id="elem_Fall, Kontakt"><ellipse cx="113.9626" cy="808.6925" fill="#F1F1F1" rx="66.4626" ry="15.6925" style="stroke:#181818;stroke-width:0.5;"/><text fill="#000000" font-family="sans-serif" font-size="14" lengthAdjust="spacing" textLength="83" x="69.4626" y="812.4401">Fall, Kontakt</text></g><g id="elem_Verordnung "><ellipse cx="359.5233" cy="874.4047" fill="#F1F1F1" rx="67.5233" ry="15.9047" style="stroke:#181818;stroke-width:0.5;"/><text fill="#000000" font-family="sans-serif" font-size="14" lengthAdjust="spacing" textLength="82" x="313.5233" y="878.1522">Verordnung</text></g><g id="elem_Intensit&#228;t, Dauer"><ellipse cx="359.6551" cy="805.531" fill="#F1F1F1" rx="78.1551" ry="18.031" style="stroke:#181818;stroke-width:0.5;"/><text fill="#000000" font-family="sans-serif" font-size="14" lengthAdjust="spacing" textLength="114" x="300.2659" y="809.1166">Intensit&#228;t, Dauer</text></g><g id="elem_Information"><ellipse cx="359.3963" cy="637.2793" fill="#F1F1F1" rx="64.3963" ry="15.2793" style="stroke:#181818;stroke-width:0.5;"/><text fill="#000000" font-family="sans-serif" font-size="14" lengthAdjust="spacing" textLength="77" x="317.8963" y="641.0268">Information</text></g><g id="elem_Verordnung"><ellipse cx="359.613" cy="571.6226" fill="#F1F1F1" rx="66.113" ry="15.6226" style="stroke:#181818;stroke-width:0.5;"/><text fill="#000000" font-family="sans-serif" font-size="14" lengthAdjust="spacing" textLength="82" x="315.613" y="575.3702">Verordnung</text></g><g id="elem_Verabreichung"><ellipse cx="359.5678" cy="503.5136" fill="#F1F1F1" rx="73.0678" ry="17.0136" style="stroke:#181818;stroke-width:0.5;"/><text fill="#000000" font-family="sans-serif" font-size="14" lengthAdjust="spacing" textLength="101" x="306.0678" y="507.2611">Verabreichung</text></g><g id="elem_Abgabe"><ellipse cx="359.6151" cy="436.6874" fill="#F1F1F1" rx="49.6151" ry="14.6874" style="stroke:#181818;stroke-width:0.5;"/><text fill="#000000" font-family="sans-serif" font-size="14" lengthAdjust="spacing" textLength="53" x="330.1151" y="440.4349">Abgabe</text></g><g id="elem_Einstellung"><ellipse cx="572.5594" cy="571.7119" fill="#F1F1F1" rx="64.0594" ry="15.2119" style="stroke:#181818;stroke-width:0.5;"/><text fill="#000000" font-family="sans-serif" font-size="14" lengthAdjust="spacing" textLength="76" x="531.5594" y="575.4594">Einstellung</text></g><g id="elem_Rezeptierung"><ellipse cx="572.4333" cy="504.4867" fill="#F1F1F1" rx="70.4333" ry="16.4867" style="stroke:#181818;stroke-width:0.5;"/><text fill="#000000" font-family="sans-serif" font-size="14" lengthAdjust="spacing" textLength="94" x="522.4333" y="508.2342">Rezeptierung</text></g><g id="elem_Pr&#252;fung"><ellipse cx="359.3615" cy="125.6946" fill="#F1F1F1" rx="50.3615" ry="14.6946" style="stroke:#181818;stroke-width:0.5;"/><text fill="#000000" font-family="sans-serif" font-size="14" lengthAdjust="spacing" textLength="54" x="329.3615" y="129.4422">Pr&#252;fung</text></g><g id="elem_Reconcillation"><ellipse cx="359.6781" cy="191.6356" fill="#F1F1F1" rx="71.1781" ry="16.6356" style="stroke:#181818;stroke-width:0.5;"/><text fill="#000000" font-family="sans-serif" font-size="14" lengthAdjust="spacing" textLength="96" x="308.6781" y="195.3832">Reconcillation</text></g><g id="elem_Zusammenstellen"><ellipse cx="359.712" cy="367.4424" fill="#F1F1F1" rx="82.712" ry="18.9424" style="stroke:#181818;stroke-width:0.5;"/><text fill="#000000" font-family="sans-serif" font-size="14" lengthAdjust="spacing" textLength="125" x="296.5208" y="370.5215">Zusammenstellen</text></g><g id="elem_Aufteilen"><ellipse cx="359.3402" cy="298.7338" fill="#F1F1F1" rx="54.8402" ry="14.7338" style="stroke:#181818;stroke-width:0.5;"/><text fill="#000000" font-family="sans-serif" font-size="14" lengthAdjust="spacing" textLength="60" x="326.3402" y="302.4814">Aufteilen</text></g><g id="elem_Ver&#228;ndern"><ellipse cx="572.7349" cy="367.447" fill="#F1F1F1" rx="62.7349" ry="14.947" style="stroke:#181818;stroke-width:0.5;"/><text fill="#000000" font-family="sans-serif" font-size="14" lengthAdjust="spacing" textLength="72" x="533.7349" y="371.1945">Ver&#228;ndern</text></g><!--entity Heilberufler--><g id="elem_Heilberufler"><ellipse cx="114" cy="14" fill="#F1F1F1" rx="8" ry="8" style="stroke:#181818;stroke-width:0.5;"/><path d="M114,22 L114,49 M101,30 L127,30 M114,49 L101,64 M114,49 L127,64 " fill="none" style="stroke:#181818;stroke-width:0.5;"/><text fill="#000000" font-family="sans-serif" font-size="14" lengthAdjust="spacing" textLength="78" x="75" y="78.4951">Heilberufler</text></g><!--entity Versicherter--><g id="elem_Versicherter"><ellipse cx="114" cy="608" fill="#F1F1F1" rx="8" ry="8" style="stroke:#181818;stroke-width:0.5;"/><path d="M114,616 L114,643 M101,624 L127,624 M114,643 L101,658 M114,643 L127,658 " fill="none" style="stroke:#181818;stroke-width:0.5;"/><text fill="#000000" font-family="sans-serif" font-size="14" lengthAdjust="spacing" textLength="84" x="72" y="672.4951">Versicherter</text></g><!--link Heilberufler to gnrlUC--><g id="link_Heilberufler_gnrlUC"><path d="M153.05,43.5 C169.9025,43.5 190.9031,43.5 212.9895,43.5 C215.7503,43.5 218.5281,43.5 221.3168,43.5 C222.7112,43.5 224.1083,43.5 225.5075,43.5 C226.207,43.5 226.9071,43.5 227.6075,43.5 C227.9578,43.5 222.3081,43.5 222.6585,43.5 " fill="none" id="Heilberufler-to-gnrlUC" style="stroke:#181818;stroke-width:1.0;"/><polygon fill="#181818" points="228.6585,43.5,219.6585,39.5,223.6585,43.5,219.6585,47.5,228.6585,43.5" style="stroke:#181818;stroke-width:1.0;"/></g><!--link Versicherter to Information--><g id="link_Versicherter_Information"><path d="M156.03,637.5 C193.98,637.5 244.98,637.5 288.84,637.5 " fill="none" id="Versicherter-to-Information" style="stroke:#181818;stroke-width:1.0;"/><polygon fill="#181818" points="294.84,637.5,285.84,633.5,289.84,637.5,285.84,641.5,294.84,637.5" style="stroke:#181818;stroke-width:1.0;"/></g><!--SRC=[NLBRQkCm47ttLmnzQGhD3uGIyBPRMjh0acwxi6-AFBQ5nv8PoItP9N_Jp-XRVcp7roWha45dPiwSEHx2F41mmAOe0sI6KGVZR7BfAsCRnQg6HkbA5VWIzeIWoRLP72LZCUmR1CUXT4bogNHm3AlxXySjRB5ntiXxlmBbuUuRtDn0sZHajEhQm7gTZFaFQ6Y7tEQ4l9h0DsHlT8aSEj0B9a90PU-2u-jjntcH3YzubNkhF5x0tmJaJDaB8Vb0NNfgRN4rnBgp-24Iq8Qh4tAlYAxXoTcWgXWN1iUPbNg8q4SRqCfqnyzm3NUgHHw2X_wxs639kTBb-rmyXAKkTrptytiwVkaAnq3Nc9MncQdww0Z_wiGZVHYkUf93CZjHMAR91g82QpHscZ_kCpAz_Iz50BLZ58jFMBehr6wIzDrO7v3e5DxY7sp4E9wXsUXqy_Fbp60-VkLpsbYjdTM6A99rE6VPu3I_NpuRwHvJ_cwzgciSHA6DcDCs3x92PvYCT_oq6VBSIRoB5msMo_LeOXBlMez7_ibQvrO7t-EdzLj1RO8fL40V9un_PGLerOxG_mC0]--></g></svg>