<?xml version="1.0" encoding="us-ascii" standalone="no"?><svg xmlns="http://www.w3.org/2000/svg" xmlns:xlink="http://www.w3.org/1999/xlink" contentStyleType="text/css" height="1022px" preserveAspectRatio="none" style="width:756px;height:1022px;background:#FFFFFF;" version="1.1" viewBox="0 0 756 1022" width="756px" zoomAndPan="magnify"><defs/><g><!--cluster adverseUC--><g id="cluster_adverseUC"><rect fill="none" height="345" rx="35" ry="35" style="stroke:#181818;stroke-width:1.0;" width="472.5" x="7" y="671.5"/><text fill="#000000" font-family="sans-serif" font-size="14" font-weight="bold" lengthAdjust="spacing" textLength="145" x="170.75" y="691.4951">Adverse Use Case</text></g><!--cluster Verwechslung--><g id="cluster_Verwechslung"><rect fill="none" height="156" rx="35" ry="35" style="stroke:#181818;stroke-width:1.0;" width="409.5" x="46" y="714.5"/><text fill="#000000" font-family="sans-serif" font-size="14" font-weight="bold" lengthAdjust="spacing" textLength="114" x="193.75" y="734.4951">Verwechslung</text></g><!--cluster gnrlUC--><g id="cluster_gnrlUC"><rect fill="none" height="623" rx="35" ry="35" style="stroke:#181818;stroke-width:1.0;" width="533.5" x="217" y="16.5"/><text fill="#000000" font-family="sans-serif" font-size="14" font-weight="bold" lengthAdjust="spacing" textLength="77" x="445.25" y="36.4951">Allgemein</text></g><!--cluster booKUC--><g id="cluster_booKUC"><rect fill="none" height="263" rx="35" ry="35" style="stroke:#181818;stroke-width:1.0;" width="453.5" x="257" y="83.5"/><text fill="#000000" font-family="sans-serif" font-size="14" font-weight="bold" lengthAdjust="spacing" textLength="183" x="392.25" y="103.4951">Buchung von Terminen</text></g><g id="elem_Mehrfachbelegung"><ellipse cx="107.8592" cy="980.3718" fill="#F1F1F1" rx="84.8592" ry="19.3718" style="stroke:#181818;stroke-width:0.5;"/><text fill="#000000" font-family="sans-serif" font-size="14" lengthAdjust="spacing" textLength="130" x="42.8592" y="983.2185">Mehrfachbelegung</text></g><g id="elem_Termin&#252;berhang"><ellipse cx="108.0591" cy="907.6118" fill="#F1F1F1" rx="78.5591" ry="18.1118" style="stroke:#181818;stroke-width:0.5;"/><text fill="#000000" font-family="sans-serif" font-size="14" lengthAdjust="spacing" textLength="115" x="48.3328" y="911.1525">Termin&#252;berhang</text></g><g id="elem_Nicht-Erscheinen"><ellipse cx="351.7839" cy="981.3568" fill="#F1F1F1" rx="79.7839" ry="18.3568" style="stroke:#181818;stroke-width:0.5;"/><text fill="#000000" font-family="sans-serif" font-size="14" lengthAdjust="spacing" textLength="118" x="291.0356" y="984.7613">Nicht-Erscheinen</text></g><g id="elem_Personal&#252;berhang"><ellipse cx="352.0656" cy="908.6131" fill="#F1F1F1" rx="83.5656" ry="19.1131" style="stroke:#181818;stroke-width:0.5;"/><text fill="#000000" font-family="sans-serif" font-size="14" lengthAdjust="spacing" textLength="127" x="288.1623" y="911.5974">Personal&#252;berhang</text></g><g id="elem_Dauer"><ellipse cx="107.9072" cy="834.5911" fill="#F1F1F1" rx="41.4072" ry="14.5911" style="stroke:#181818;stroke-width:0.5;"/><text fill="#000000" font-family="sans-serif" font-size="14" lengthAdjust="spacing" textLength="42" x="83.982" y="838.3206">Dauer</text></g><g id="elem_Termin"><ellipse cx="107.8836" cy="770.6478" fill="#F1F1F1" rx="45.8836" ry="14.6478" style="stroke:#181818;stroke-width:0.5;"/><text fill="#000000" font-family="sans-serif" font-size="14" lengthAdjust="spacing" textLength="48" x="80.8836" y="774.3954">Termin</text></g><g id="elem_Ben&#246;tigte Expertise"><ellipse cx="351.9744" cy="834.3949" fill="#F1F1F1" rx="87.4744" ry="19.8949" style="stroke:#181818;stroke-width:0.5;"/><text fill="#000000" font-family="sans-serif" font-size="14" lengthAdjust="spacing" textLength="136" x="283.9744" y="837.2416">Ben&#246;tigte Expertise</text></g><g id="elem_Patient"><ellipse cx="351.8836" cy="764.6478" fill="#F1F1F1" rx="45.8836" ry="14.6478" style="stroke:#181818;stroke-width:0.5;"/><text fill="#000000" font-family="sans-serif" font-size="14" lengthAdjust="spacing" textLength="48" x="324.8836" y="768.3954">Patient</text></g><g id="elem_Information"><ellipse cx="351.8963" cy="599.2793" fill="#F1F1F1" rx="64.3963" ry="15.2793" style="stroke:#181818;stroke-width:0.5;"/><text fill="#000000" font-family="sans-serif" font-size="14" lengthAdjust="spacing" textLength="77" x="310.3963" y="603.0268">Information</text></g><g id="elem_Benachrichtigung"><ellipse cx="351.9455" cy="530.6891" fill="#F1F1F1" rx="81.4455" ry="18.6891" style="stroke:#181818;stroke-width:0.5;"/><text fill="#000000" font-family="sans-serif" font-size="14" lengthAdjust="spacing" textLength="122" x="289.8109" y="533.909">Benachrichtigung</text></g><g id="elem_Terminbuchung"><ellipse cx="352.0612" cy="459.7122" fill="#F1F1F1" rx="76.5612" ry="17.7122" style="stroke:#181818;stroke-width:0.5;"/><text fill="#000000" font-family="sans-serif" font-size="14" lengthAdjust="spacing" textLength="110" x="294.0612" y="463.4598">Terminbuchung</text></g><g id="elem_Sprechzeiten"><ellipse cx="352.1952" cy="390.339" fill="#F1F1F1" rx="69.6952" ry="16.339" style="stroke:#181818;stroke-width:0.5;"/><text fill="#000000" font-family="sans-serif" font-size="14" lengthAdjust="spacing" textLength="92" x="303.1952" y="394.0866">Sprechzeiten</text></g><g id="elem_Schlie&#223;zeiten"><ellipse cx="593.0634" cy="530.4127" fill="#F1F1F1" rx="70.0634" ry="16.4127" style="stroke:#181818;stroke-width:0.5;"/><text fill="#000000" font-family="sans-serif" font-size="14" lengthAdjust="spacing" textLength="93" x="543.5634" y="534.1602">Schlie&#223;zeiten</text></g><g id="elem_Terminhistorie"><ellipse cx="592.8073" cy="461.3615" fill="#F1F1F1" rx="72.3073" ry="16.8615" style="stroke:#181818;stroke-width:0.5;"/><text fill="#000000" font-family="sans-serif" font-size="14" lengthAdjust="spacing" textLength="99" x="540.3073" y="465.109">Terminhistorie</text></g><g id="elem_Personalplanung"><ellipse cx="592.9652" cy="391.693" fill="#F1F1F1" rx="78.9652" ry="18.193" style="stroke:#181818;stroke-width:0.5;"/><text fill="#000000" font-family="sans-serif" font-size="14" lengthAdjust="spacing" textLength="116" x="532.9" y="395.1886">Personalplanung</text></g><g id="elem_Absage"><ellipse cx="351.8687" cy="288.68" fill="#F1F1F1" rx="48.8687" ry="14.68" style="stroke:#181818;stroke-width:0.5;"/><text fill="#000000" font-family="sans-serif" font-size="14" lengthAdjust="spacing" textLength="52" x="322.8687" y="292.4275">Absage</text></g><g id="elem_Verschieben"><ellipse cx="351.8807" cy="222.4761" fill="#F1F1F1" rx="67.8807" ry="15.9761" style="stroke:#181818;stroke-width:0.5;"/><text fill="#000000" font-family="sans-serif" font-size="14" lengthAdjust="spacing" textLength="87" x="305.3807" y="226.2237">Verschieben</text></g><g id="elem_Durchf&#252;hrung"><ellipse cx="352.1781" cy="154.6356" fill="#F1F1F1" rx="71.1781" ry="16.6356" style="stroke:#181818;stroke-width:0.5;"/><text fill="#000000" font-family="sans-serif" font-size="14" lengthAdjust="spacing" textLength="96" x="301.1781" y="158.3832">Durchf&#252;hrung</text></g><g id="elem_Anfrage-Ablehnung"><ellipse cx="593.1635" cy="294.6327" fill="#F1F1F1" rx="86.1635" ry="19.6327" style="stroke:#181818;stroke-width:0.5;"/><text fill="#000000" font-family="sans-serif" font-size="14" lengthAdjust="spacing" textLength="133" x="526.6635" y="297.4794">Anfrage-Ablehnung</text></g><g id="elem_Anfrage-Abbruch"><ellipse cx="592.9652" cy="221.693" fill="#F1F1F1" rx="78.9652" ry="18.193" style="stroke:#181818;stroke-width:0.5;"/><text fill="#000000" font-family="sans-serif" font-size="14" lengthAdjust="spacing" textLength="116" x="532.9" y="225.1886">Anfrage-Abbruch</text></g><g id="elem_Anfrage-Reservierung"><ellipse cx="593.1693" cy="147.6339" fill="#F1F1F1" rx="93.6693" ry="21.1339" style="stroke:#181818;stroke-width:0.5;"/><text fill="#000000" font-family="sans-serif" font-size="14" lengthAdjust="spacing" textLength="150" x="518.1693" y="150.4805">Anfrage-Reservierung</text></g><!--entity Heilberufler--><g id="elem_Heilberufler"><ellipse cx="108" cy="14" fill="#F1F1F1" rx="8" ry="8" style="stroke:#181818;stroke-width:0.5;"/><path d="M108,22 L108,49 M95,30 L121,30 M108,49 L95,64 M108,49 L121,64 " fill="none" style="stroke:#181818;stroke-width:0.5;"/><text fill="#000000" font-family="sans-serif" font-size="14" lengthAdjust="spacing" textLength="78" x="69" y="78.4951">Heilberufler</text></g><!--entity Versicherter--><g id="elem_Versicherter"><ellipse cx="108" cy="440" fill="#F1F1F1" rx="8" ry="8" style="stroke:#181818;stroke-width:0.5;"/><path d="M108,448 L108,475 M95,456 L121,456 M108,475 L95,490 M108,475 L121,490 " fill="none" style="stroke:#181818;stroke-width:0.5;"/><text fill="#000000" font-family="sans-serif" font-size="14" lengthAdjust="spacing" textLength="84" x="66" y="504.4951">Versicherter</text></g><!--link Heilberufler to gnrlUC--><g id="link_Heilberufler_gnrlUC"><path d="M147.08,43.5 C163.85,43.5 184.7156,43.5 206.6455,43.5 C209.3867,43.5 212.1446,43.5 214.9131,43.5 C215.6053,43.5 210.2981,43.5 210.9915,43.5 " fill="none" id="Heilberufler-to-gnrlUC" style="stroke:#181818;stroke-width:1.0;"/><polygon fill="#181818" points="216.9915,43.5,207.9915,39.5,211.9915,43.5,207.9915,47.5,216.9915,43.5" style="stroke:#181818;stroke-width:1.0;"/></g><!--link Versicherter to Information--><g id="link_Versicherter_Information"><path d="M135.99,507.52 C152.49,528.02 175.33,552 201,566.5 C228.28,581.91 256.189,589.2226 284.819,593.6026 " fill="none" id="Versicherter-to-Information" style="stroke:#181818;stroke-width:1.0;"/><polygon fill="#181818" points="290.75,594.51,282.4584,589.195,285.8075,593.7539,281.2486,597.103,290.75,594.51" style="stroke:#181818;stroke-width:1.0;"/></g><!--link Versicherter to booKUC--><g id="link_Versicherter_booKUC"><path d="M124.98,431.4 C139.84,401.34 165.12,361.42 201,342.5 C208.2575,338.6725 221.0275,336.4869 236.1572,335.3667 C239.9396,335.0867 243.8695,334.8732 247.8976,334.7174 C249.9117,334.6394 251.9503,334.5759 254.0073,334.5256 C254.5216,334.5131 255.037,334.5013 255.5534,334.4904 C255.8117,334.485 250.0713,334.597 250.33,334.5919 " fill="none" id="Versicherter-to-booKUC" style="stroke:#181818;stroke-width:1.0;"/><polygon fill="#181818" points="256.3289,334.4746,247.2524,330.6513,251.3298,334.5724,247.4088,338.6498,256.3289,334.4746" style="stroke:#181818;stroke-width:1.0;"/></g><!--SRC=[TLDBRjim4Dth50Dl8Yzy0I4mOCS94XGj0hlfdg978X6A58QKMxVmMNgBhhBpnJgqP8bjMW4Im3U_z-PH1gi0mG7fMWNOQq8PjBFPZN_LjXKa6cY5V1KrxiBH84ZZkdqQDTfYEBO8Ze9oMNOZP704nSFZqnQss3gl-NmiG7ZOhE7s5bPjQxGKSGmibzcG_uZQb4XTPP2AA_W5oMkfa484FMDC1CJ-m3Y-tCMUirL_WXT-xuJ76Vp8W9zhTivDlg9KtdIsdlUn-EGRqI7Df_Ddf4RR15YZFVyAkWu8zzzQ9g4z9k5dbe0szCZfyiq_eg9AI5MYmJhEovBMvpSMgCI8Vc9fON5FdXNo5eVH-JFBSLQO9FsKZU9hI-Qgt9WQ6owzIiwVREMekQnsQCOQc0x5IVeTeRAJQi9sBPkllgCE8vMTL4RZ-USVO5-hT6IayI_IhH5sR7dbN3htOU2yxaV2WStl6w6T9QQiIiyLSvYGU0UaqbXYwisc8wcgyvkYSLfVRwiuSh4g3IhxlrX9JECVaIrwf8F6gUafxZwzcx1OB0SJilHwNl1a_- -3_HOo_aKgAuE_ODDLBg3HR948wDE4mUu2s4UMv7y3]--></g></svg>